<?xml version="1.0" standalone="no"?>
<!DOCTYPE svg PUBLIC "-//W3C//DTD SVG 1.1//EN" "http://www.w3.org/Graphics/SVG/1.1/DTD/svg11.dtd">
<svg xmlns="http://www.w3.org/2000/svg">
<metadata>Copyright (C) 2024 by original authors @ fontello.com</metadata>
<defs>
<font id="prompt-studio-icons" horiz-adv-x="1000" >
<font-face font-family="prompt-studio-icons" font-weight="400" font-stretch="normal" units-per-em="1000" ascent="850" descent="-150" />
<missing-glyph horiz-adv-x="1000" />
<glyph glyph-name="cloud-add" unicode="&#xe800;" d="M311 44h-80c-123 9-178 103-178 187 0 84 55 178 176 187 17 1 32-12 33-30 1-17-12-32-29-33-81-6-117-67-117-125 0-57 36-118 117-124h78c17 0 31-14 31-31 0-17-14-31-31-31z m384 0c-1 0-2 0-2 0-18 0-33 14-33 31 0 18 13 32 30 32 52 0 98 18 133 50 65 56 70 138 52 196-17 57-66 122-151 132-14 2-25 13-27 26-17 100-71 169-152 194-85 27-183 1-244-63-60-62-73-149-39-245 6-17-2-34-19-40-16-6-34 2-40 18-42 118-23 230 53 310 77 80 201 113 307 80 97-30 166-110 191-222 85-19 154-84 181-173 29-97 3-197-70-260-47-42-107-66-170-66z m-195-122c-84 0-162 44-205 116-5 7-9 16-13 25-14 30-22 63-22 98 0 132 108 240 240 240 132 0 240-108 240-240 0-35-8-68-23-99-3-8-8-17-13-24-42-72-120-116-204-116z m0 416c-97 0-177-79-177-177 0-26 5-50 16-72 3-7 6-13 9-18 32-54 90-87 152-87 61 0 119 33 150 86 4 6 8 12 10 18 11 23 17 47 17 73 0 98-79 177-177 177z m-24-249c-8 0-16 3-22 9l-41 41c-12 12-12 32 0 44 12 12 32 12 44 0l20-20 67 62c13 12 32 11 44-2 12-12 11-32-2-44l-88-82c-7-5-14-8-22-8z" horiz-adv-x="1000" />

<glyph glyph-name="credit-usage-50" unicode="&#xe801;" d="M347 695c11-18 4-41-14-51-1-1-2-2-4-3-18-10-41-4-51 13-11 18-5 41 13 52 2 1 4 2 5 3 18 10 41 4 51-14z m-151-123c17-10 23-33 13-51-1-1-2-3-3-4-10-18-33-25-51-14-18 10-24 33-14 51 1 1 2 3 3 5 11 18 34 24 52 13z m-71-182c21 0 38-17 38-37l0-3 0-2c0-21-17-38-38-38-20 0-37 16-37 37l0 3 0 3c0 21 17 37 37 37z m30-193c18 11 41 4 51-14 1-1 2-2 3-4 10-18 4-41-13-51-18-11-41-5-52 13-1 2-2 4-3 5-10 18-4 41 14 51z m123-151c10 17 33 23 51 13 2-1 3-2 4-3 18-10 25-33 14-51-10-18-33-24-51-14-1 1-3 2-5 3-18 11-24 34-13 52z m222 717c-21 0-37-17-37-38 0-21 16-37 37-37 90 0 175-36 239-99 63-64 99-149 99-239 0-89-36-175-99-239-64-63-149-98-239-98-21 0-37-17-37-38 0-21 16-38 37-38 109 0 214 44 292 121 77 78 121 183 121 292 0 109-44 214-121 292-78 77-183 121-292 121z" horiz-adv-x="1000" />

<glyph glyph-name="history" unicode="&#xe802;" d="M720-22c-202-116-460-46-576 155-41 72-61 155-55 238 1 19 17 33 35 32 19-2 33-18 32-36-5-70 12-139 47-200 97-169 314-228 483-130 170 98 228 315 130 484-98 169-315 227-484 129-36-20-68-45-95-74-13-14-34-15-47-2-14 13-15 34-2 48 32 34 69 63 110 87 202 116 460 47 576-154 116-201 47-460-154-577z m-533 554c-7-4-15-5-23-4-19 4-30 21-27 39l38 194c3 18 21 30 39 26 18-3 30-21 27-39l-38-193c-2-10-8-18-16-23z m185-20c-5-3-13-5-20-4l-186 20c-18 2-31 18-29 37 1 18 18 31 37 30l185-20c18-2 32-19 30-37-1-12-8-21-17-26z m269-344c-6 0-11 2-16 5l-127 76c-32 18-55 60-55 96v168c0 17 14 31 31 31 17 0 31-14 31-31v-168c0-14 12-36 25-44l127-75c14-9 19-28 10-43-6-9-16-15-26-15z" horiz-adv-x="1000" />

<glyph glyph-name="data-string" unicode="&#xe803;" d="M889 520c-17 0-31 14-31 31v76c0 31-25 55-55 55h-605c-31 0-55-24-55-55v-76c0-17-15-31-32-31-17 0-31 14-31 31v76c0 65 53 118 118 118h605c65 0 117-53 117-118v-76c0-17-14-31-31-31z m-389-565c-17 0-31 15-31 32v692c0 17 14 31 31 31 17 0 31-14 31-31v-692c0-18-14-32-31-32z m164 0h-328c-17 0-31 15-31 32 0 17 14 31 31 31h328c17 0 31-14 31-31 0-17-14-32-31-32z" horiz-adv-x="1000" />

<glyph glyph-name="data-object" unicode="&#xe804;" d="M500 296c-5 0-11 1-16 4l-368 213c-14 9-20 28-11 43 9 15 28 20 43 11l352-204 350 203c15 9 34 3 43-11 9-15 3-35-11-43l-366-212c-5-2-11-4-16-4z m0-378c-17 0-31 14-31 32v378c0 17 14 31 31 31 17 0 31-14 31-31v-378c0-18-14-32-31-32z m0-16c-37 0-73 8-102 24l-222 124c-61 33-108 113-108 183v235c0 69 47 149 108 183l222 123c57 32 147 32 204 0l222-124c61-33 108-113 108-182v-236c0-69-47-149-108-183l-222-123c-29-16-65-24-102-24z m0 833c-26 0-52-5-71-15l-223-124c-40-22-75-82-75-128v-235c0-46 35-106 75-129l223-124c38-21 104-21 142 0l223 124c40 23 75 82 75 129v235c0 46-35 106-75 128l-223 124c-19 10-45 15-71 15z" horiz-adv-x="1000" />

<glyph glyph-name="data-intiger" unicode="&#xe805;" d="M333-56c-1 0-2 0-3 0-17 2-30 17-27 34l83 750c2 17 17 30 34 28 18-2 30-18 28-35l-83-750c-2-16-16-27-32-27z m250 0c-1 0-2 0-3 0-17 2-30 17-27 34l83 750c2 17 17 30 34 28 18-2 30-18 28-35l-83-750c-2-16-16-27-32-27z m313 500h-750c-17 0-31 14-31 31 0 17 14 31 31 31h750c17 0 31-14 31-31 0-17-14-31-31-31z m-42-250h-750c-17 0-31 14-31 31 0 17 14 31 31 31h750c17 0 31-14 31-31 0-17-14-31-31-31z" horiz-adv-x="1000" />

<glyph glyph-name="data-double" unicode="&#xe806;" d="M488-98h-187c-173 0-250 77-250 250v188c0 173 77 250 250 250h187c173 0 250-77 250-250v-188c0-173-77-250-250-250z m-187 625c-138 0-188-49-188-187v-188c0-138 50-187 188-187h187c139 0 188 49 188 187v188c0 138-49 187-188 187h-187z m454-250h-48c-17 0-31 14-31 31v32c0 138-49 187-188 187h-31c-17 0-31 14-31 31v48c0 133 59 192 192 192h137c133 0 192-59 192-192v-137c0-133-59-192-192-192z m-17 63h17c98 0 129 31 129 129v137c0 98-31 129-129 129h-137c-98 0-130-31-130-129v-16c173 0 250-77 250-250z" horiz-adv-x="1000" />

<glyph glyph-name="add" unicode="&#xe807;" d="M750 319h-500c-17 0-31 14-31 31 0 17 14 31 31 31h500c17 0 31-14 31-31 0-17-14-31-31-31z m-250-250c-17 0-31 14-31 31v500c0 17 14 31 31 31 17 0 31-14 31-31v-500c0-17-14-31-31-31z" horiz-adv-x="1000" />

<glyph glyph-name="add-circle" unicode="&#xe808;" d="M500-98c-247 0-448 201-448 448 0 247 201 448 448 448 247 0 448-201 448-448 0-247-201-448-448-448z m0 833c-212 0-385-172-385-385 0-212 173-385 385-385 213 0 385 173 385 385 0 213-172 385-385 385z m167-416h-334c-17 0-31 14-31 31 0 17 14 31 31 31h334c17 0 31-14 31-31 0-17-14-31-31-31z m-167-167c-17 0-31 14-31 31v334c0 17 14 31 31 31 17 0 31-14 31-31v-334c0-17-14-31-31-31z" horiz-adv-x="1000" />

<glyph glyph-name="data-boolean" unicode="&#xe809;" d="M583-15h-166c-202 0-365 164-365 365 0 201 163 365 365 365h166c202 0 365-164 365-365 0-201-163-365-365-365z m-166 667c-167 0-302-135-302-302 0-167 135-302 302-302h166c167 0 302 135 302 302 0 167-135 302-302 302h-166z m0-500c-109 0-198 89-198 198 0 109 89 198 198 198 109 0 198-89 198-198 0-109-89-198-198-198z m0 333c-75 0-136-60-136-135 0-75 61-135 136-135 74 0 135 60 135 135 0 75-61 135-135 135z" horiz-adv-x="1000" />

<glyph glyph-name="add-square" unicode="&#xe80a;" d="M667 319h-334c-17 0-31 14-31 31 0 17 14 31 31 31h334c17 0 31-14 31-31 0-17-14-31-31-31z m-167-167c-17 0-31 14-31 31v334c0 17 14 31 31 31 17 0 31-14 31-31v-334c0-17-14-31-31-31z m125-250h-250c-226 0-323 97-323 323v250c0 226 97 323 323 323h250c226 0 323-97 323-323v-250c0-226-97-323-323-323z m-250 833c-192 0-260-68-260-260v-250c0-192 68-260 260-260h250c192 0 260 68 260 260v250c0 192-68 260-260 260h-250z" horiz-adv-x="1000" />

<glyph glyph-name="data-array" unicode="&#xe80b;" d="M824 381h-169c-83 0-124 37-124 114v189c0 77 41 114 124 114h169c84 0 124-37 124-114v-189c0-77-41-114-124-114z m-169 354c-55 0-61-15-61-51v-189c0-35 6-51 61-51h169c56 0 61 16 61 51v189c0 36-5 51-61 51h-169z m169-833h-169c-83 0-124 41-124 124v169c0 83 41 124 124 124h169c84 0 124-41 124-124v-169c0-83-41-124-124-124z m-169 354c-49 0-61-12-61-61v-169c0-49 12-61 61-61h169c49 0 61 12 61 61v169c0 49-12 61-61 61h-169z m-310 125h-169c-83 0-124 37-124 114v189c0 77 41 114 124 114h169c83 0 124-37 124-114v-189c0-77-41-114-124-114z m-169 354c-56 0-61-15-61-51v-189c0-35 5-51 61-51h169c55 0 61 16 61 51v189c0 36-6 51-61 51h-169z m169-833h-169c-83 0-124 41-124 124v169c0 83 41 124 124 124h169c83 0 124-41 124-124v-169c0-83-41-124-124-124z m-169 354c-49 0-61-12-61-61v-169c0-49 12-61 61-61h169c49 0 61 12 61 61v169c0 49-12 61-61 61h-169z" horiz-adv-x="1000" />

<glyph glyph-name="slash-1" unicode="&#xe80c;" d="M121 579c0 83 67 150 150 150 20 0 37 17 37 38 0 21-17 37-37 37-125 0-225-100-225-225v-458c0-125 100-225 225-225 20 0 37 17 37 37 0 21-17 38-37 38-83 0-150 67-150 150v458z m767 0c0 83-67 150-150 150-21 0-38 17-38 38 0 21 17 37 38 37 124 0 225-100 225-225v-458c0-125-101-225-225-225-21 0-38 17-38 37 0 21 17 38 38 38 83 0 150 67 150 150v458z m-211-52c14-15 14-39 0-53l-300-300c-15-15-39-15-53 0-15 14-15 38 0 53l300 300c14 14 38 14 53 0z" horiz-adv-x="1000" />

<glyph glyph-name="align-bottom" unicode="&#xe811;" d="M710 27h-44c-83 0-124 39-124 119v492c0 17 14 31 31 31 17 0 32-14 32-31v-492c0-42 8-56 61-56h44c53 0 61 14 61 56v492c0 17 14 31 32 31 17 0 31-14 31-31v-492c0-80-41-119-124-119z m-355 208h-43c-84 0-124 39-124 119v284c0 17 14 31 31 31 17 0 31-14 31-31v-284c0-42 9-56 62-56h43c53 0 62 14 62 56v284c0 17 14 31 31 31 17 0 32-14 32-31v-284c0-80-41-119-125-119z m562 375h-834c-17 0-31 15-31 32 0 17 14 31 31 31h834c17 0 31-14 31-31 0-17-14-32-31-32z" horiz-adv-x="1000" />

<glyph glyph-name="align-horizontally" unicode="&#xe812;" d="M334 6h-43c-84 0-124 39-124 119v450c0 80 41 119 124 119h43c84 0 124-39 124-119v-450c0-80-40-119-124-119z m-43 625c-53 0-62-14-62-56v-450c0-42 9-56 62-56h43c53 0 62 14 62 56v450c0 42-9 56-62 56h-43z m397-541h-43c-84 0-124 38-124 118v284c0 80 41 118 124 118h43c84 0 125-38 125-118v-284c0-80-41-118-125-118z m-43 458c-53 0-62-14-62-56v-284c0-42 9-56 62-56h43c53 0 62 14 62 56v284c0 42-9 56-62 56h-43z m-462-229h-100c-17 0-31 14-31 31 0 17 14 31 31 31h100c17 0 32-14 32-31 0-17-14-31-32-31z m359 0h-84c-17 0-31 14-31 31 0 17 14 31 31 31h84c17 0 31-14 31-31 0-17-14-31-31-31z m375 0h-113c-17 0-31 14-31 31 0 17 14 31 31 31h113c17 0 31-14 31-31 0-17-14-31-31-31z" horiz-adv-x="1000" />

<glyph glyph-name="align-left" unicode="&#xe813;" d="M704 17h-491c-18 0-32 14-32 31 0 17 14 31 32 31h491c42 0 56 9 56 62v43c0 53-14 62-56 62h-491c-18 0-32 14-32 31 0 17 14 31 32 31h491c80 0 119-40 119-124v-43c0-83-39-124-119-124z m-208 354h-283c-18 0-32 14-32 31 0 17 14 31 32 31h283c42 0 56 9 56 62v43c0 53-14 62-56 62h-283c-18 0-32 14-32 31 0 17 14 32 32 32h283c80 0 119-41 119-125v-43c0-83-39-124-119-124z m-288-469c-17 0-31 15-31 32v833c0 17 14 31 31 31 17 0 32-14 32-31v-833c0-17-15-32-32-32z" horiz-adv-x="1000" />

<glyph glyph-name="align-right" unicode="&#xe814;" d="M788 17h-492c-80 0-119 41-119 124v43c0 84 39 124 119 124h492c17 0 31-14 31-31 0-17-14-31-31-31h-492c-42 0-56-9-56-62v-43c0-53 14-62 56-62h492c17 0 31-14 31-31 0-17-14-31-31-31z m0 354h-284c-80 0-119 41-119 124v43c0 84 39 125 119 125h284c17 0 31-15 31-32 0-17-14-31-31-31h-284c-42 0-56-9-56-62v-43c0-53 14-62 56-62h284c17 0 31-14 31-31 0-17-14-31-31-31z m4-469c-17 0-32 15-32 32v833c0 17 15 31 32 31 17 0 31-14 31-31v-833c0-17-14-32-31-32z" horiz-adv-x="1000" />

<glyph glyph-name="align-vertically" unicode="&#xe815;" d="M725 17h-450c-80 0-119 41-119 124v43c0 84 39 124 119 124h450c80 0 119-40 119-124v-43c0-83-39-124-119-124z m-450 229c-42 0-56-9-56-62v-43c0-53 14-62 56-62h450c42 0 56 9 56 62v43c0 53-14 62-56 62h-450z m367 125h-284c-80 0-118 41-118 124v43c0 84 38 125 118 125h284c80 0 118-41 118-125v-43c0-83-38-124-118-124z m-284 229c-42 0-56-9-56-62v-43c0-53 14-62 56-62h284c42 0 56 9 56 62v43c0 53-14 62-56 62h-284z m142-698c-17 0-31 14-31 31v100c0 17 14 32 31 32 17 0 31-15 31-32v-100c0-17-14-31-31-31z m0 375c-17 0-31 14-31 31v84c0 17 14 31 31 31 17 0 31-14 31-31v-84c0-17-14-31-31-31z m0 346c-17 0-31 15-31 32v112c0 17 14 31 31 31 17 0 31-14 31-31v-112c0-18-14-32-31-32z" horiz-adv-x="1000" />

<glyph glyph-name="archive-1" unicode="&#xe818;" d="M500 422c-42 0-85 7-125 22-17 6-25 24-19 40 6 16 24 24 40 19 67-25 141-25 208 0 16 5 34-3 40-19 6-16-2-34-19-40-40-15-82-22-125-22z m295-520c-22 0-45 6-67 19l-204 113c-12 7-36 7-48 0l-203-113c-41-23-83-25-115-6-33 19-51 57-51 104v587c0 106 86 192 192 192h402c106 0 192-86 192-192v-587c0-47-18-85-50-104-15-9-31-13-48-13z m-295 200c20 0 39-4 54-13l204-113c21-12 40-15 53-7 12 7 19 25 19 50v587c0 71-58 129-129 129h-402c-71 0-129-58-129-129v-587c0-25 7-43 19-50 13-7 32-5 54 7l203 113c15 9 34 13 54 13z m295-200c-22 0-45 6-67 19l-204 113c-12 7-36 7-48 0l-203-113c-41-23-83-25-115-6-33 19-51 57-51 104v587c0 106 86 192 192 192h402c106 0 192-86 192-192v-587c0-47-18-85-50-104-15-9-31-13-48-13z m-295 200c20 0 39-4 54-13l204-113c21-12 40-15 53-7 12 7 19 25 19 50v587c0 71-58 129-129 129h-402c-71 0-129-58-129-129v-587c0-25 7-43 19-50 13-7 32-5 54 7l203 113c15 9 34 13 54 13z" horiz-adv-x="1000" />

<glyph glyph-name="archive-2" unicode="&#xe819;" d="M688-98h-375c-138 0-157 75-157 156v366c0 17 14 31 32 31 17 0 31-14 31-31v-366c0-72 12-93 94-93h375c81 0 93 21 93 93v366c0 17 14 31 32 31 17 0 31-14 31-31v-366c0-81-19-156-156-156z m104 500h-584c-100 0-156 56-156 156v84c0 101 56 156 156 156h584c101 0 156-55 156-156v-84c0-100-55-156-156-156z m-584 333c-65 0-93-27-93-93v-84c0-65 28-93 93-93h584c66 0 93 28 93 93v84c0 66-27 93-93 93h-584z m368-500h-152c-17 0-31 15-31 32 0 17 14 31 31 31h152c17 0 31-14 31-31 0-17-14-32-31-32z" horiz-adv-x="1000" />

<glyph glyph-name="archive-add" unicode="&#xe81a;" d="M604 375h-208c-17 0-31 14-31 31 0 17 14 32 31 32h208c17 0 31-15 31-32 0-17-14-31-31-31z m-104-107c-17 0-31 15-31 32v208c0 17 14 31 31 31 17 0 31-14 31-31v-208c0-17-14-32-31-32z m295-366c-22 0-45 6-67 19l-204 113c-12 7-36 7-48 0l-203-113c-41-23-83-25-115-6-33 19-51 57-51 104v587c0 106 86 192 192 192h402c106 0 192-86 192-192v-587c0-47-18-85-50-104-15-9-31-13-48-13z m-295 200c20 0 39-4 54-13l204-113c21-12 40-15 53-7 12 7 19 25 19 50v587c0 71-58 129-129 129h-402c-71 0-129-58-129-129v-587c0-25 7-43 19-50 13-7 32-5 54 7l203 113c15 9 34 13 54 13z" horiz-adv-x="1000" />

<glyph glyph-name="archive-minus" unicode="&#xe81c;" d="M604 375h-208c-17 0-31 14-31 31 0 17 14 32 31 32h208c17 0 31-15 31-32 0-17-14-31-31-31z m-399-473c-17 0-33 4-48 13-32 18-50 56-50 103v588c0 106 86 192 192 192h402c106 0 192-86 192-192v-587c0-47-18-85-50-104-33-19-75-17-116 6l-203 113c-12 7-36 7-48 0l-203-113c-23-12-46-19-68-19z m94 833c-71 0-129-58-129-129v-587c0-25 7-43 19-50 13-8 32-5 54 7l203 113c31 17 77 17 108 0l204-113c21-12 40-15 53-7 12 7 19 26 19 50v587c0 71-58 129-129 129h-402z" horiz-adv-x="1000" />

<glyph glyph-name="archive-slash" unicode="&#xe81d;" d="M83-98c-8 0-15 3-22 9-12 12-12 32 0 44l834 834c12 12 32 12 44 0 12-12 12-32 0-44l-834-834c-6-6-14-9-22-9z m704 0c-24 0-49 7-74 21l-271 170c-15 9-19 28-10 42 9 15 28 20 43 10l270-168c23-13 47-16 62-7 15 8 23 30 23 59v458c0 17 15 31 32 31 17 0 31-14 31-31v-458c0-52-20-93-55-113-15-9-33-14-51-14z m-649 85c-17 0-31 15-31 32v587c0 106 86 192 192 192h402c58 0 113-26 149-71 11-14 9-33-4-44-13-11-33-9-44 4-25 31-62 48-101 48h-402c-71 0-129-58-129-129v-587c0-17-15-32-32-32z" horiz-adv-x="1000" />

<glyph glyph-name="archive-tick" unicode="&#xe81e;" d="M205-98c-17 0-33 4-48 13-32 18-50 56-50 103v588c0 106 86 192 192 192h402c106 0 192-86 192-192v-587c0-47-18-85-50-104-33-19-75-17-116 6l-203 113c-12 7-36 7-48 0l-203-113c-23-12-46-19-68-19z m94 833c-71 0-129-58-129-129v-587c0-25 7-43 19-50 13-7 32-5 54 7l203 113c31 17 77 17 108 0l204-113c21-12 40-15 53-7 12 7 19 26 19 50v587c0 71-58 129-129 129h-402z m163-437c-8 0-16 3-22 9l-62 63c-13 12-13 32 0 44 12 12 32 12 44 0l40-41 145 145c12 12 32 12 44 0 12-12 12-32 0-44l-167-167c-6-6-14-9-22-9z" horiz-adv-x="1000" />

<glyph glyph-name="arrow-down" unicode="&#xe82b;" d="M500-35c-8 0-16 2-22 9l-253 253c-12 12-12 32 0 44 12 12 32 12 44 0l231-231 231 231c12 12 32 12 44 0 12-12 12-32 0-44l-253-253c-6-7-14-9-22-9z m0 7c-17 0-31 14-31 31v701c0 17 14 31 31 31 17 0 31-14 31-31v-701c0-17-14-31-31-31z" horiz-adv-x="1000" />

<glyph glyph-name="arrow-down-1" unicode="&#xe82c;" d="M500 150c-29 0-58 11-80 33l-272 272c-12 12-12 32 0 44 12 12 32 12 44 0l272-271c20-20 52-20 72 0l272 271c12 12 32 12 44 0 12-12 12-32 0-44l-272-272c-22-22-51-33-80-33z" horiz-adv-x="1000" />

<glyph glyph-name="arrow-left" unicode="&#xe82e;" d="M399 66c-8 0-16 3-22 9l-253 253c-12 12-12 32 0 44l253 253c12 12 32 12 44 0 12-12 12-32 0-44l-231-231 231-231c12-12 12-32 0-44-6-6-14-9-22-9z m455 253h-701c-17 0-31 14-31 31 0 17 14 31 31 31h701c17 0 31-14 31-31 0-17-14-31-31-31z" horiz-adv-x="1000" />

<glyph glyph-name="arrow-left-2" unicode="&#xe830;" d="M625-11c-8 0-16 3-22 9l-272 272c-44 44-44 116 0 160l272 272c12 12 32 12 44 0 12-12 12-32 0-44l-272-272c-20-20-20-52 0-72l272-272c12-12 12-32 0-44-6-6-14-9-22-9z" horiz-adv-x="1000" />

<glyph glyph-name="arrow-right" unicode="&#xe832;" d="M625-98h-250c-226 0-323 97-323 323v250c0 226 97 323 323 323h250c226 0 323-97 323-323v-250c0-226-97-323-323-323z m-250 833c-192 0-260-68-260-260v-250c0-192 68-260 260-260h250c192 0 260 68 260 260v250c0 192-68 260-260 260h-250z m73-563c-8 0-16 3-23 9-12 12-12 32 0 44l125 125-125 125c-12 12-12 32 0 44 13 12 33 12 45 0l147-147c12-12 12-32 0-44l-147-147c-7-6-15-9-22-9z" horiz-adv-x="1000" />

<glyph glyph-name="arrow-right-1" unicode="&#xe833;" d="M601 66c-8 0-16 3-22 9-12 12-12 32 0 44l231 231-231 231c-12 12-12 32 0 44 12 12 32 12 44 0l253-253c12-12 12-32 0-44l-253-253c-6-6-14-9-22-9z m246 253h-701c-17 0-31 14-31 31 0 17 14 31 31 31h701c17 0 31-14 31-31 0-17-14-31-31-31z" horiz-adv-x="1000" />

<glyph glyph-name="arrow-right-3" unicode="&#xe835;" d="M371-11c-8 0-16 3-22 9-12 12-12 32 0 44l272 272c20 20 20 52 0 72l-272 272c-12 12-12 32 0 44 12 12 32 12 44 0l272-272c21-21 33-50 33-80 0-30-11-59-33-80l-272-272c-6-6-14-9-22-9z" horiz-adv-x="1000" />

<glyph glyph-name="arrow-right-4" unicode="&#xe836;" d="M371 52c-26 0-51 6-73 19-51 29-79 89-79 167v223c0 79 28 138 79 168 52 29 117 24 185-15l193-111c68-40 106-94 106-153 0-59-38-113-106-152l-193-112c-39-23-77-34-112-34z m0 533c-16 0-30-3-42-10-31-18-48-58-48-114v-222c0-55 17-96 49-114 31-17 74-12 122 15l193 112c48 27 74 62 74 98 0 36-26 71-74 98l-193 112c-29 17-57 25-81 25z" horiz-adv-x="1000" />

<glyph glyph-name="arrow-square-down" unicode="&#xe838;" d="M625-98h-250c-226 0-323 97-323 323v250c0 226 97 323 323 323h250c226 0 323-97 323-323v-250c0-226-97-323-323-323z m-250 833c-192 0-260-68-260-260v-250c0-192 68-260 260-260h250c192 0 260 68 260 260v250c0 192-68 260-260 260h-250z m125-506c-8 0-16 3-22 9l-147 147c-12 12-12 32 0 44 12 12 32 12 44 0l125-125 125 125c12 12 32 12 44 0 12-12 12-32 0-44l-147-147c-6-6-14-9-22-9z" horiz-adv-x="1000" />

<glyph glyph-name="arrow-square-left" unicode="&#xe839;" d="M625-98h-250c-226 0-323 97-323 323v250c0 226 97 323 323 323h250c226 0 323-97 323-323v-250c0-226-97-323-323-323z m-250 833c-192 0-260-68-260-260v-250c0-192 68-260 260-260h250c192 0 260 68 260 260v250c0 192-68 260-260 260h-250z m178-563c-8 0-16 3-23 9l-147 147c-12 12-12 32 0 44l147 147c13 12 33 12 45 0 12-12 12-32 0-44l-125-125 125-125c12-12 12-32 0-44-6-6-14-9-22-9z" horiz-adv-x="1000" />

<glyph glyph-name="arrow-square-up" unicode="&#xe83a;" d="M625-98h-250c-226 0-323 97-323 323v250c0 226 97 323 323 323h250c226 0 323-97 323-323v-250c0-226-97-323-323-323z m-250 833c-192 0-260-68-260-260v-250c0-192 68-260 260-260h250c192 0 260 68 260 260v250c0 192-68 260-260 260h-250z m272-477c-8 0-16 3-22 9l-125 125-125-125c-12-12-32-12-44 0-12 12-12 32 0 44l147 147c12 12 32 12 44 0l147-147c12-12 12-32 0-44-6-6-14-9-22-9z" horiz-adv-x="1000" />

<glyph glyph-name="arrow-up-2" unicode="&#xe83f;" d="M830 192c-8 0-16 3-22 9l-272 272c-20 20-52 20-72 0l-272-272c-12-12-32-12-44 0-12 12-12 32 0 44l272 272c44 44 116 44 160 0l272-272c12-12 12-32 0-44-6-6-14-9-22-9z" horiz-adv-x="1000" />

<glyph glyph-name="arrow-up-3" unicode="&#xe840;" d="M753 420c-8 0-16 3-22 9l-231 231-231-231c-12-12-32-12-44 0-12 12-12 32 0 44l253 253c12 12 32 12 44 0l253-253c12-12 12-32 0-44-6-6-14-9-22-9z m-253-455c-17 0-31 14-31 31v701c0 17 14 31 31 31 17 0 31-14 31-31v-701c0-17-14-31-31-31z" horiz-adv-x="1000" />

<glyph glyph-name="book" unicode="&#xe868;" d="M146 69c-17 0-31 14-31 31v458c0 184 55 240 239 240h292c184 0 239-56 239-240v-416c0-7 0-13 0-20-1-17-17-30-33-29-17 1-31 16-29 33 0 5 0 11 0 16v416c0 149-28 177-177 177h-292c-149 0-177-28-177-177v-458c0-17-14-31-31-31z m562-167h-416c-98 0-177 80-177 177v27c0 83 67 150 150 150h589c17 0 31-14 31-31v-146c0-97-79-177-177-177z m-443 292c-49 0-88-39-88-88v-27c0-63 51-114 115-114h416c64 0 115 51 115 114v115h-558z m402 333h-334c-17 0-31 14-31 31 0 17 14 32 31 32h334c17 0 31-15 31-32 0-17-14-31-31-31z m-125-146h-209c-17 0-31 14-31 32 0 17 14 31 31 31h209c17 0 31-14 31-31 0-18-14-32-31-32z" horiz-adv-x="1000" />

<glyph glyph-name="book-1" unicode="&#xe869;" d="M500-70c-12 0-25 3-35 9-78 42-215 87-301 99l-12 1c-55 7-100 58-100 114v503c0 33 13 63 37 84 24 22 54 33 87 30 92-7 230-53 308-102l10-6c3-2 9-2 12-1l7 4c78 50 216 96 308 104 1 0 4 0 5 0 31 3 62-8 85-29 24-22 37-52 37-85v-503c0-56-45-107-100-113l-14-2c-86-11-223-57-299-99-10-6-22-8-35-8z m-334 778c-13 0-26-5-35-14-11-9-16-23-16-38v-503c0-25 21-49 45-52l12-2c94-12 238-59 321-105 4-2 9-2 11-1 84 46 228 94 322 106l14 2c24 3 45 27 45 52v502c0 16-5 29-16 39-11 10-24 14-40 14-1 0-4 0-5 0-79-8-208-50-278-94l-6-5c-23-14-56-14-78 0l-10 6c-71 43-199 86-281 93-2 0-3 0-5 0z m334-743c-17 0-31 14-31 31v625c0 17 14 32 31 32 17 0 31-15 31-32v-625c0-17-14-31-31-31z m-177 500h-94c-17 0-31 14-31 31 0 17 14 32 31 32h94c17 0 31-15 31-32 0-17-14-31-31-31z m31-125h-125c-17 0-31 14-31 31 0 17 14 32 31 32h125c17 0 31-15 31-32 0-17-14-31-31-31z" horiz-adv-x="1000" />

<glyph glyph-name="box" unicode="&#xe86e;" d="M500 296c-5 0-11 1-16 4l-368 213c-15 9-20 28-11 43 9 15 28 20 43 11l352-204 350 203c15 9 34 3 43-11 9-15 3-35-11-43l-366-212c-5-2-11-4-16-4z m0-378c-17 0-31 14-31 32v378c0 17 14 31 31 31 17 0 31-14 31-31v-378c0-18-14-32-31-32z m0-16c-37 0-73 8-102 24l-222 124c-61 33-108 113-108 183v235c0 69 47 149 108 183l222 123c57 32 147 32 204 0l222-124c61-33 108-113 108-182v-236c0-69-47-149-108-183l-222-123c-29-16-65-24-102-24z m0 833c-26 0-52-5-71-15l-223-124c-40-23-75-82-75-128v-236c0-46 35-106 75-128l223-124c38-21 104-21 142 0l223 124c40 22 75 82 75 128v236c0 45-35 105-75 128l-223 124c-19 10-45 15-71 15z m208-468c-17 0-31 14-31 31v135l-380 219c-15 8-20 28-11 42 9 15 27 20 42 11l396-228c9-5 16-16 16-27v-152c0-17-14-31-32-31z" horiz-adv-x="1000" />

<glyph glyph-name="pointing-arrow" unicode="&#xe87d;" d="M187 700c0 21-17 38-38 38-20 0-37-17-37-38v-431c0-90 72-162 162-162h486l-67-68c-15-15-15-38 0-53 14-15 38-15 53 0l131 132c7 6 11 16 11 26 0 11-4 20-11 27l-131 131c-15 15-39 15-53 0-15-14-15-38 0-53l67-67h-486c-48 0-87 39-87 87v431z" horiz-adv-x="1000" />

<glyph glyph-name="data-structure" unicode="&#xe87e;" d="M208 152c-17 0-31 14-31 31v292c0 17 14 31 31 31 17 0 32-14 32-31v-292c0-17-15-31-32-31z m11 313c-92 0-167 74-167 166 0 92 75 167 167 167 92 0 166-75 166-167 0-92-74-166-166-166z m0 270c-58 0-104-46-104-104 0-57 46-104 104-104 57 0 104 47 104 104 0 58-47 104-104 104z m-11-833c-86 0-156 70-156 156 0 87 70 157 156 157 87 0 157-70 157-157 0-86-70-156-157-156z m0 250c-51 0-93-42-93-94 0-51 42-93 93-93 52 0 94 42 94 93 0 52-42 94-94 94z m584-250c-87 0-157 70-157 156 0 87 70 157 157 157 86 0 156-70 156-157 0-86-70-156-156-156z m0 250c-52 0-94-42-94-94 0-51 42-93 94-93 51 0 93 42 93 93 0 52-42 94-93 94z m-35-2c-13 0-25 8-29 21-31 88-113 147-206 147-1 0-1 0-1 0l-143-1c0 0 0 0-1 0-91 0-171 62-194 150-4 17 6 34 23 38 17 4 34-6 38-22 16-61 70-104 133-104h1l142 1c1 0 1 0 2 0 119 0 225-76 264-189 6-16-3-34-19-39-3-1-7-2-10-2z" horiz-adv-x="1000" />

<glyph glyph-name="brush-4" unicode="&#xe87f;" d="M435 85c-7 0-12 1-18 5-9 6-14 15-14 26 0 6 0 13-1 19-4 30-17 56-39 78-23 23-51 37-81 41-5 0-12 1-19 0-10-1-20 4-27 13-6 8-8 19-4 29 6 17 15 33 26 45l64 81c111 138 334 304 498 370 35 13 72 5 97-20 26-26 34-64 21-98-66-164-232-387-370-498l-82-66c-15-11-28-18-40-23-3-2-8-2-11-2z m-121 226c35-9 66-28 93-54 26-26 43-56 52-89l71 57c130 104 288 316 350 472 6 16-3 26-7 30-3 3-14 12-30 6-155-63-368-220-473-350l-56-72z m-144-409c-31 0-61 13-84 35-26 26-38 62-34 98l11 103c11 102 95 177 198 179 8 1 18 0 28-1 45-6 86-26 118-58 32-33 51-71 57-114 1-9 2-19 2-28 0-55-21-106-59-145-32-31-74-51-120-57l-103-11c-5-1-9-1-14-1z m99 352c-2 0-4 0-6 0-63-1-129-44-138-123l-11-103c-2-17 4-34 16-47 13-12 30-18 47-16l102 11c32 4 61 18 83 39 26 27 41 63 41 101 0 7 0 13-1 20-4 29-17 55-39 78-23 22-51 36-81 40-3 0-8 0-13 0z m324-38c-17 0-31 14-31 31 0 92-74 166-166 166-17 0-31 14-31 31 0 17 14 31 31 31 126 0 228-102 228-228 1-17-14-31-31-31z" horiz-adv-x="1000" />

<glyph glyph-name="folder" unicode="&#xe880;" d="M708-98h-416c-184 0-240 56-240 240v416c0 184 56 240 240 240h62c73 0 96-24 125-63l63-83c13-18 16-21 41-21h125c184 0 240-56 240-239v-250c0-184-56-240-240-240z m-416 833c-149 0-177-28-177-177v-416c0-149 28-177 177-177h416c149 0 177 28 177 177v250c0 148-28 177-177 177h-125c-53 0-70 18-91 46l-63 83c-21 29-28 37-75 37h-62z" horiz-adv-x="1000" />

<glyph glyph-name="import-2" unicode="&#xe881;" d="M575 394c-8 0-16 3-22 9-12 12-12 32 0 44l342 342c12 12 32 12 44 0 12-12 12-32 0-44l-342-342c-6-6-14-9-22-9z m168-34h-201c-17 0-32 15-32 32v201c0 17 15 31 32 31 17 0 31-14 31-31v-170h170c17 0 31-14 31-31 0-17-14-32-31-32z m-118-458h-250c-226 0-323 97-323 323v250c0 226 97 323 323 323h83c17 0 32-14 32-31 0-17-15-32-32-32h-83c-192 0-260-68-260-260v-250c0-192 68-260 260-260h250c192 0 260 68 260 260v83c0 17 15 32 32 32 17 0 31-15 31-32v-83c0-226-97-323-323-323z" horiz-adv-x="1000" />

<glyph glyph-name="refresh" unicode="&#xe882;" d="M606-84c-13 0-26 9-30 23-5 17 5 34 22 38 170 45 287 198 287 373 0 213-172 386-385 386-180 0-299-106-354-169h122c17 0 32-14 32-32 0-17-14-31-32-31h-184c-2 0-6 0-9 1-4 1-7 3-10 5-4 3-7 6-9 10-2 3-3 8-4 13 0 1 0 2 0 3v189c0 17 14 31 31 31 17 0 32-14 32-31v-100c68 73 195 173 385 173 247 0 448-201 448-448 0-203-137-382-334-433-2-1-5-1-8-1z m-136-13c0 0-1 0-2 0-45 3-89 13-130 29-13 5-21 17-20 30 0 4 0 8 2 11 6 16 25 24 40 18 36-14 74-23 113-26 16 0 29-15 29-31l-1-2c-1-16-14-29-31-29z m-229 89c-7 0-14 3-20 7-35 29-66 61-91 98-3 6-5 11-5 18 0 10 5 20 13 25 14 10 34 6 44-7 0 0 0 0 0 0 0-1 1-2 1-2 22-31 48-59 77-83 8-5 12-14 12-24 0-7-2-14-7-20-6-7-15-12-24-12z m-139 204c-14 0-26 9-30 22-13 42-20 87-20 132v0c1 18 14 31 31 31 17 0 32-14 32-31 0-39 5-77 17-114 1-3 1-6 1-9 0-14-9-26-22-30-3-1-6-1-9-1z" horiz-adv-x="1000" />

<glyph glyph-name="message-text-1" unicode="&#xe883;" d="M667-98h-542c-40 0-73 33-73 73v542c0 184 97 281 281 281h334c184 0 281-97 281-281v-334c0-184-97-281-281-281z m-334 833c-149 0-218-69-218-218v-542c0-6 4-10 10-10h542c149 0 218 69 218 218v334c0 149-69 218-218 218h-334z m375-312h-416c-17 0-32 14-32 31 0 17 15 31 32 31h416c17 0 32-14 32-31 0-17-15-31-32-31z m-125-208h-291c-17 0-32 14-32 31 0 17 15 31 32 31h291c17 0 32-14 32-31 0-17-15-31-32-31z" horiz-adv-x="1000" />

<glyph glyph-name="messages-2" unicode="&#xe884;" d="M745-61c-13 0-26 3-38 10l-167 99c-17 1-35 2-52 5-11 1-20 9-25 20-4 10-2 22 6 31 27 32 41 70 41 111 0 101-88 183-197 183-41 0-80-11-113-33-10-6-21-7-31-2-9 5-16 14-18 25-1 11-2 23-2 35 0 207 179 375 399 375 220 0 400-168 400-375 0-113-53-218-145-289l14-113c3-29-9-55-33-71-12-7-26-11-39-11z m-197 172c6 1 12-1 17-4l174-104c5-3 9-2 11 0 2 1 5 5 5 10l-17 132c-1 12 4 23 13 30 85 59 134 150 134 249 0 172-151 312-337 312-178 0-325-130-336-293 31 12 65 18 100 18 144 0 261-110 261-245 0-37-9-72-25-105z m-357-209c-11 0-21 3-31 9-19 12-29 33-26 55l8 64c-56 46-89 114-89 185 0 82 42 158 113 203 43 28 94 43 147 43 144 0 260-110 260-246 0-55-20-109-56-152-47-57-118-90-195-93l-102-60c-9-5-19-8-29-8z m122 496c-41 0-80-11-113-33-54-34-85-90-85-150 0-57 28-110 78-145 10-6 15-17 13-29l-9-71 100 59c5 3 10 4 16 4 61 0 119 27 155 71 28 33 42 71 42 112 0 100-88 182-197 182z" horiz-adv-x="1000" />

<glyph glyph-name="global" unicode="&#xe885;" d="M500-98c-247 0-448 201-448 448 0 247 201 448 448 448 247 0 448-201 448-448 0-247-201-448-448-448z m0 833c-212 0-385-172-385-385 0-212 173-385 385-385 213 0 385 173 385 385 0 213-172 385-385 385z m-125-791h-42c-17 0-31 14-31 31 0 17 13 31 31 31-66 224-66 464 0 688-18 0-31 14-31 31 0 17 14 31 31 31h42c10 0 20-5 25-13 6-8 8-18 5-28-79-235-79-495 0-730 3-10 1-20-5-29-5-7-15-12-25-12z m250 0c-3 0-7 0-10 1-16 6-25 24-20 40 79 235 79 495 0 730-5 17 4 35 20 40 17 5 34-3 40-20 83-248 83-521 0-769-5-14-17-22-30-22z m-125 189c-116 0-232 17-344 50 0-17-14-31-31-31-17 0-31 14-31 31v42c0 10 5 20 13 25 8 6 18 8 28 5 235-79 495-79 730 0 10 3 20 1 29-5 8-5 13-15 13-25v-42c0-17-14-31-32-31-17 0-30 13-31 31-112-33-228-50-344-50z m375 311c-3 0-7 0-10 1-235 79-495 79-730 0-17-5-35 4-40 20-5 17 4 34 20 40 248 83 522 83 770 0 16-6 25-24 19-40-4-13-16-21-29-21z" horiz-adv-x="1000" />

<glyph glyph-name="briefcase" unicode="&#xe886;" d="M667-98h-334c-192 0-228 90-237 177l-31 334c-5 43-6 108 37 156 38 42 100 62 190 62h416c91 0 153-21 190-62 43-48 42-113 37-157l-31-333c-9-87-45-177-237-177z m-375 667c-71 0-119-14-144-41-20-23-27-58-21-109l31-334c7-66 25-120 175-120h334c150 0 168 54 175 120l31 333c6 52-1 87-21 110-25 27-73 41-144 41h-416z m375 0c-17 0-32 14-32 31v33c0 75 0 102-102 102h-66c-102 0-102-27-102-102v-33c0-17-15-31-32-31-17 0-31 14-31 31v33c0 74 0 165 165 165h66c165 0 165-91 165-165v-33c0-17-14-31-31-31z m-167-417c-115 0-115 71-115 113v43c0 59 15 73 73 73h84c58 0 73-14 73-73v-41c0-44 0-115-115-115z m-52 167c0-4 0-7 0-11v-43c0-42 0-50 52-50 52 0 52 6 52 51v42c0 4 0 7 0 11-3 0-7 0-10 0h-84c-3 0-7 0-10 0z m135-84c-15 0-29 11-30 27-3 17 10 33 27 35 110 14 215 56 304 120 14 11 33 7 44-7 10-14 7-33-8-44-97-71-212-116-333-131-1 0-2 0-4 0z m-166-1c-2 0-3 0-4 0-114 13-225 55-322 121-14 9-18 29-8 43 10 14 29 18 43 8 88-60 189-98 294-110 17-2 29-17 27-34-1-16-14-28-30-28z" horiz-adv-x="1000" />

<glyph glyph-name="row-vertical" unicode="&#xe887;" d="M829-98h-658c-80 0-119 41-119 124v169c0 83 39 124 119 124h658c80 0 119-41 119-124v-169c0-83-39-124-119-124z m-658 354c-42 0-56-8-56-61v-169c0-53 14-61 56-61h658c42 0 56 8 56 61v169c0 53-14 61-56 61h-658z m658 125h-658c-80 0-119 41-119 124v169c0 84 39 124 119 124h658c80 0 119-41 119-124v-169c0-83-39-124-119-124z m-658 354c-42 0-56-8-56-61v-169c0-52 14-61 56-61h658c42 0 56 9 56 61v169c0 53-14 61-56 61h-658z" horiz-adv-x="1000" />

<glyph glyph-name="format-square" unicode="&#xe888;" d="M710-15h-420c-10 0-18 5-25 12-6 7-8 16-6 26 1 5 1 10 1 15 0 40-32 72-72 72-5 0-11 0-15-1-10-2-19 1-26 6-7 6-12 15-12 25v420c0 10 5 18 12 25 7 6 16 8 26 6 4-1 10-1 15-1 40 0 72 33 72 73 0 5 0 10-1 15-2 9 1 18 6 25 6 7 15 12 25 12h420c10 0 18-5 25-12 6-7 8-16 6-25-1-5-1-10-1-15 0-40 33-73 73-73 5 0 10 0 15 1 9 2 18-1 25-6 7-6 12-15 12-25v-420c0-10-5-18-12-25-7-6-16-8-25-6-5 1-10 1-15 1-40 0-73-32-73-72 0-5 0-11 1-15 2-10-1-19-6-26-6-7-15-12-25-12z m-387 63h355c5 66 58 120 124 125v355c-66 5-119 58-124 124h-355c-5-66-59-119-125-124v-355c66-5 120-59 125-125z m-135 479c-10 0-18 1-27 3-63 13-109 68-109 133 0 74 61 135 136 135 64 0 120-45 132-108 2-10 3-18 3-27 0-75-61-136-135-136z m0 208c-40 0-73-32-73-72 0-35 24-65 58-72 4-1 10-1 15-1 40 0 72 33 72 73 0 5 0 10-1 15-7 33-37 57-71 57z m625-208c-75 0-136 61-136 136 0 9 1 17 3 26 13 64 68 109 133 109 74 0 135-61 135-135 0-65-45-120-108-133-10-2-18-3-27-3z m0 208c-35 0-65-24-72-58-1-4-1-9-1-14 0-40 33-73 73-73 5 0 10 0 15 1 33 7 57 37 57 72 0 40-32 72-72 72z m-625-833c-75 0-136 61-136 136 0 64 46 120 108 132 9 2 18 3 28 3 74 0 135-61 135-135 0-10-1-18-3-27-12-64-68-109-132-109z m0 208c-5 0-11 0-15-1-34-7-58-37-58-71 0-41 33-73 73-73 34 0 64 24 71 58 1 5 1 10 1 15 0 40-32 72-72 72z m625-208c-65 0-120 45-133 108-2 9-3 18-3 28 0 74 61 135 136 135 9 0 17-1 26-3 64-12 109-68 109-132 0-75-61-136-135-136z m0 208c-40 0-73-32-73-72 0-5 0-11 1-15 7-34 37-58 72-58 40 0 72 32 72 73 0 34-24 64-58 71-4 1-9 1-14 1z" horiz-adv-x="1000" />

<glyph glyph-name="document-copy" unicode="&#xe889;" d="M475-98h-158c-183 0-265 82-265 265v158c0 183 82 265 265 265h125c17 0 31-15 31-32 0-17-14-31-31-31h-125c-149 0-202-53-202-202v-158c0-149 53-202 202-202h158c149 0 202 53 202 202v125c0 17 14 31 31 31 17 0 32-14 32-31v-125c0-183-82-265-265-265z m233 358h-133c-117 0-165 48-165 165v133c0 13 8 25 20 29 11 5 25 2 34-7l266-266c9-9 12-23 7-34-4-12-16-20-29-20z m-235 223v-58c0-83 19-102 102-102h58l-160 160z m177 252h-167c-17 0-31 15-31 32 0 17 14 31 31 31h167c17 0 31-14 31-31 0-17-14-32-31-32z m-358-125c-17 0-32 15-32 32 0 86 70 156 157 156h109c17 0 31-14 31-31 0-17-14-32-31-32h-109c-52 0-94-42-94-93 0-17-14-32-31-32z m508-500c-17 0-32 15-32 32 0 17 15 31 32 31 47 0 85 39 85 86v258c0 17 15 31 32 31 17 0 31-14 31-31v-258c0-82-67-149-148-149z m117 375h-125c-111 0-157 46-157 157v125c0 12 8 24 20 28 11 5 25 3 34-6l250-250c9-9 11-23 6-34-4-12-16-20-28-20z m-219 206v-49c0-77 17-94 94-94h49l-143 143z" horiz-adv-x="1000" />

<glyph glyph-name="document-forward" unicode="&#xe88a;" d="M458 110c-8 0-15 3-22 10-12 12-12 32 0 44l30 30h-174c-17 0-32 14-32 31 0 17 15 31 32 31h174l-30 30c-6 7-9 14-9 22 0 8 3 16 9 22 12 13 32 13 44 0l84-83c5-5 8-12 9-19 0-2 0-5 0-7-1-6-4-11-8-16 0 0-1-1-2-2l-83-83c-6-7-14-10-22-10z m167-208h-250c-226 0-323 97-323 323v250c0 226 97 323 323 323h208c17 0 32-14 32-31 0-17-15-32-32-32h-208c-192 0-260-68-260-260v-250c0-192 68-260 260-260h250c192 0 260 68 260 260v208c0 17 15 32 32 32 17 0 31-15 31-32v-208c0-226-97-323-323-323z m292 500h-167c-142 0-198 56-198 198v167c0 12 8 24 19 28 12 5 25 3 34-6l334-334c9-8 11-22 6-34-5-11-16-19-28-19z m-302 289v-91c0-107 28-135 135-135h91l-226 226z" horiz-adv-x="1000" />

<glyph glyph-name="tick-circle-1" unicode="&#xe88b;" d="M500-98c-247 0-448 201-448 448 0 247 201 448 448 448 247 0 448-201 448-448 0-247-201-448-448-448z m0 833c-212 0-385-172-385-385 0-212 173-385 385-385 213 0 385 173 385 385 0 213-172 385-385 385z m-59-534c-8 0-16 3-22 9l-118 118c-12 12-12 32 0 44 12 12 32 12 44 0l96-96 214 214c12 13 32 13 44 0 12-12 12-32 0-44l-236-236c-6-6-14-9-22-9z" horiz-adv-x="1000" />

<glyph glyph-name="data-timestamp" unicode="&#xe88c;" d="M500-98c-247 0-448 201-448 448 0 247 201 448 448 448 247 0 448-201 448-448 0-247-201-448-448-448z m0 833c-212 0-385-172-385-385 0-212 173-385 385-385 213 0 385 173 385 385 0 213-172 385-385 385z m155-549c-6 0-11 2-16 5l-129 77c-32 19-56 61-56 98v171c0 17 14 31 31 31 17 0 31-14 31-31v-171c0-15 13-37 26-44l129-77c15-9 19-28 11-43-7-10-17-16-27-16z" horiz-adv-x="1000" />

<glyph glyph-name="more-2" unicode="&#xe88d;" d="M500 430c-67 0-121 55-121 122 0 66 54 121 121 121 67 0 121-55 121-121 0-67-54-122-121-122z m0 180c-32 0-59-26-59-58 0-33 27-59 59-59 33 0 59 26 59 59 0 32-26 58-59 58z m-217-583c-67 0-121 55-121 121 0 67 54 122 121 122 67 0 121-55 121-122 0-66-54-121-121-121z m0 180c-33 0-59-26-59-59 0-32 26-58 59-58 32 0 59 26 59 58 0 33-27 59-59 59z m434-180c-67 0-121 55-121 121 0 67 54 122 121 122 67 0 121-55 121-122 0-66-54-121-121-121z m0 180c-32 0-59-26-59-59 0-32 27-58 59-58 33 0 59 26 59 58 0 33-26 59-59 59z" horiz-adv-x="1000" />

<glyph glyph-name="notification" unicode="&#xe88e;" d="M501-5c-97 0-194 15-286 46-35 12-62 37-74 69-12 32-8 67 12 99l47 79c10 17 20 50 20 70v120c0 155 126 282 281 282 155 0 281-127 281-282v-120c0-19 9-53 19-70l48-79c18-30 21-66 9-99-12-33-38-58-71-69-92-31-189-46-286-46z m0 702c-121 0-219-98-219-219v-120c0-30-12-75-28-102l-48-79c-9-16-11-32-6-46 5-14 18-25 35-31 174-58 358-58 533 0 15 5 26 17 32 32 5 15 4 31-5 45l-47 79c-16 27-28 72-28 102v120c0 121-98 219-219 219z m77-11c-3 0-5 0-8 1-12 3-24 6-35 8-36 4-70 2-102-8-12-4-24 0-32 9-8 9-11 21-6 32 17 44 59 73 106 73 48 0 89-28 107-73 4-11 2-23-6-32-7-7-15-10-24-10z m-77-786c-41 0-81 16-111 45-29 30-45 70-45 111h62c0-25 10-49 28-66 17-18 41-28 66-28 52 0 94 42 94 94h62c0-86-70-156-156-156z" horiz-adv-x="1000" />

<glyph glyph-name="search-normal-1" unicode="&#xe890;" d="M479-56c-235 0-427 191-427 427 0 235 192 427 427 427 236 0 427-192 427-427 0-236-191-427-427-427z m0 791c-201 0-364-163-364-364 0-201 163-365 364-365 201 0 365 164 365 365 0 201-164 364-365 364z m438-833c-8 0-16 3-22 9l-84 84c-12 12-12 32 0 44 12 12 32 12 44 0l84-84c12-12 12-32 0-44-6-6-14-9-22-9z" horiz-adv-x="1000" />

<glyph glyph-name="home-1" unicode="&#xe891;" d="M741-98h-482c-114 0-207 93-207 207v309c0 57 35 128 80 163l225 175c67 52 175 55 245 6l258-181c49-34 88-108 88-169v-303c0-114-93-207-207-207z m-346 805l-225-175c-29-24-55-77-55-114v-309c0-79 64-144 144-144h482c80 0 144 64 144 144v303c0 40-28 96-61 118l-258 180c-47 34-126 32-171-3z m105-638c-17 0-31 14-31 31v125c0 17 14 31 31 31 17 0 31-14 31-31v-125c0-17-14-31-31-31z" horiz-adv-x="1000" />

<glyph glyph-name="brush-1" unicode="&#xe892;" d="M624-98h-250c-226 0-323 97-323 323v250c0 226 97 323 323 323h83c17 0 31-14 31-31 0-17-14-32-31-32h-83c-192 0-261-68-261-260v-250c0-192 69-260 261-260h250c192 0 260 68 260 260v83c0 17 14 32 31 32 18 0 32-15 32-32v-83c0-226-97-323-323-323z m-91 313c-7 0-13 2-18 5-9 6-14 16-14 26 0 5 0 10-1 15-3 22-13 42-30 59-17 17-37 28-60 30-4 1-9 1-14 1-11-1-21 4-27 12-6 8-8 20-5 30 5 14 13 27 22 37l52 65c89 111 268 244 401 297 30 12 62 5 84-17 23-23 30-55 18-85-53-132-186-312-297-401l-66-52c-13-9-23-16-34-20-4-1-8-2-11-2z m-86 190c25-8 48-22 68-41 19-19 33-41 40-65l50 39c103 84 228 252 278 376 3 8 0 14-4 17-2 2-8 7-17 3-124-49-292-174-375-278l-40-51z m-126-336c-27 0-52 10-71 29-22 22-33 53-29 84l8 82c9 84 78 147 164 149 7 0 15 0 23-1 38-5 72-22 99-49 26-26 43-58 47-94 1-8 2-16 2-23 0-46-18-88-50-121-26-26-60-42-99-47l-82-9c-5 0-8 0-12 0z m79 281c-1 0-3 0-4 0-48-1-98-33-105-93l-8-82c-2-12 3-24 11-32 8-9 20-13 32-12l82 9c24 3 45 13 62 30 20 20 31 47 31 76 0 4 0 9-1 14-3 23-13 42-30 59-17 17-38 28-61 31-2 0-5 0-9 0z m259-30c-17 0-31 14-31 31 0 69-57 127-127 127-17 0-31 14-31 31 0 17 14 31 31 31 104 0 189-85 189-189 0-17-13-31-31-31z" horiz-adv-x="1000" />

<glyph glyph-name="paperclip-2" unicode="&#xe893;" d="M514-39c-46 0-91 17-126 52-69 69-69 181 0 250l104 103c12 12 32 12 44 0 12-12 12-32 0-44l-103-103c-45-45-45-118 0-162 44-45 117-45 162 0l162 162c49 49 76 114 76 184 0 70-27 135-76 184-102 102-267 102-369 0l-176-177c-42-41-64-96-64-154 0-58 22-113 64-155 12-12 12-32 0-44-12-12-32-12-44 0-53 53-83 124-83 199 0 75 29 146 83 199l176 176c126 126 331 126 457 0 61-61 94-142 94-228 0-86-33-168-94-228l-162-162c-35-35-80-52-125-52z" horiz-adv-x="1000" />

<glyph glyph-name="grid-4" unicode="&#xe894;" d="M625-98h-250c-226 0-323 97-323 323v250c0 226 97 323 323 323h250c226 0 323-97 323-323v-250c0-226-97-323-323-323z m-250 833c-192 0-260-68-260-260v-250c0-192 68-260 260-260h250c192 0 260 68 260 260v250c0 192-68 260-260 260h-250z m0-833c-17 0-31 14-31 31v834c0 17 14 31 31 31 17 0 31-14 31-31v-834c0-17-14-31-31-31z" horiz-adv-x="1000" />

<glyph glyph-name="mouse-circle" unicode="&#xe895;" d="M682-99c0 0 0 0-1 0-42 1-77 26-89 67l-77 248c-11 34-2 71 23 95 25 25 62 34 95 24l248-77c40-13 67-48 67-90 0-42-25-77-65-90l-68-23c-10-4-17-11-20-20l-23-69c-13-39-48-65-90-65z m-77 375c-12 0-19-6-22-9-9-9-12-21-8-33l77-248c6-21 25-22 31-22 5 0 23 1 30 22l23 68c9 28 32 50 60 60l68 23c21 6 22 25 22 30 0 6-2 24-23 31l-248 77c-4 1-7 1-10 1z m-105-374c-247 0-448 201-448 448 0 247 201 448 448 448 247 0 448-201 448-448 0-17-14-31-31-31-17 0-32 14-32 31 0 213-172 385-385 385-212 0-385-172-385-385 0-212 173-385 385-385 17 0 31-15 31-32 0-17-14-31-31-31z" horiz-adv-x="1000" />

<glyph glyph-name="message-question" unicode="&#xe896;" d="M333-80c-11 0-23 3-34 9-24 12-39 37-39 64v59c-125 13-208 106-208 238v250c0 143 96 240 240 240h416c144 0 240-97 240-240v-250c0-143-96-240-240-240h-157l-177-118c-12-8-26-12-41-12z m-41 798c-108 0-177-70-177-178v-250c0-107 69-177 177-177 17 0 31-14 31-31v-89c0-5 3-8 5-9 2-1 7-2 11 1l186 123c5 3 11 5 17 5h167c107 0 177 70 177 177v250c0 108-70 178-177 178h-417z m208-373c-17 0-31 15-31 32v8c0 49 35 73 49 82 15 10 20 17 20 28 0 21-17 38-38 38-21 0-38-17-38-38 0-17-14-31-31-31-17 0-31 14-31 31 0 55 45 100 100 100 55 0 100-45 100-100 0-47-35-71-47-80-17-11-22-18-22-30v-8c0-18-14-32-31-32z m0-103c-17 0-31 14-31 31 0 17 14 31 31 31 17 0 31-14 31-31 0-17-13-31-31-31z" horiz-adv-x="1000" />

<glyph glyph-name="saving" unicode="&#xe898;" d="M121 403c0 156 126 285 275 285 120 0 219-79 261-191 5-14 19-24 35-24h16c95 0 171-77 171-177 0-49-20-92-52-124-15-16-32-29-51-38-19-9-27-31-18-50 9-19 31-27 50-18 28 14 52 32 73 53 43 45 73 106 73 177 0 137-103 247-237 252-56 125-175 215-321 215-193 0-350-164-350-360 0-153 93-282 223-335 20-8 41 1 49 21 8 19-1 41-21 48-102 42-176 144-176 266z m421-549c-21 0-38 17-38 38l0 368-61-61c-14-15-38-15-53 0-14 14-14 38 0 53l125 124c7 7 16 12 27 12 10 0 20-5 26-12l125-124c15-15 15-39 0-53-14-15-38-15-53 0l-61 61 0-368c0-21-17-38-37-38z" horiz-adv-x="1000" />

<glyph glyph-name="chevron-double" unicode="&#xe899;" d="M500-25l-187 188 60 60 127-127 127 127 61-60-188-188z m-127 498l-60 60 187 188 188-188-61-60-127 127-127-127z" horiz-adv-x="1000" />

<glyph glyph-name="close" unicode="&#xe89a;" d="M267 58l-59 59 234 233-234 233 59 59 233-234 233 234 59-59-234-233 234-233-59-59-233 234-233-234z" horiz-adv-x="1000" />

<glyph glyph-name="more-info" unicode="&#xe89b;" d="M498 100c15 0 27 5 37 15 10 10 15 23 15 37 0 15-5 27-15 37-10 10-22 15-37 15-15 0-27-5-37-15-10-10-15-22-15-37 0-14 5-27 15-37 10-10 22-15 37-15z m-38 160h78c0 23 2 41 7 55 6 13 20 31 45 54 18 18 32 35 42 51 11 17 16 36 16 59 0 39-14 69-43 90-28 21-62 31-101 31-39 0-71-10-96-31-25-21-42-46-52-75l69-27c4 12 11 26 23 40 13 15 31 22 56 22 22 0 39-6 50-18 11-12 17-26 17-40 0-14-4-27-13-39-8-12-18-24-31-34-30-27-49-48-56-61-7-14-11-40-11-77z m40-327c-58 0-112 11-162 33-51 22-95 52-133 89-37 38-67 82-89 133-22 50-33 104-33 162 0 58 11 112 33 163 22 50 52 94 89 132 38 37 82 67 133 89 50 22 104 33 162 33 58 0 112-11 163-33 50-22 94-52 132-89 37-38 67-82 89-132 22-51 33-105 33-163 0-58-11-112-33-162-22-51-52-95-89-133-38-37-82-67-132-89-51-22-105-33-163-33z m0 84c93 0 172 32 237 97 64 64 96 143 96 236 0 93-32 172-96 237-65 64-144 96-237 96-93 0-172-32-236-96-65-65-97-144-97-237 0-93 32-172 97-236 64-65 143-97 236-97z" horiz-adv-x="1000" />

<glyph glyph-name="arrow-up" unicode="&#xe89c;" d="M375 563c-21 0-37 16-37 37 0 21 16 38 37 38h375c21 0 38-17 38-38v-375c0-21-17-37-38-37-21 0-37 16-37 37v285l-436-436c-15-15-39-15-53 0-15 14-15 38 0 53l436 436h-285z" horiz-adv-x="1000" />

<glyph glyph-name="reorder" unicode="&#xe89d;" d="M450 550c0-28-22-50-50-50-28 0-50 22-50 50 0 28 22 50 50 50 28 0 50-22 50-50z m200 0c0-28-22-50-50-50-28 0-50 22-50 50 0 28 22 50 50 50 28 0 50-22 50-50z m-200-200c0-28-22-50-50-50-28 0-50 22-50 50 0 28 22 50 50 50 28 0 50-22 50-50z m200 0c0-28-22-50-50-50-28 0-50 22-50 50 0 28 22 50 50 50 28 0 50-22 50-50z m-200-200c0-28-22-50-50-50-28 0-50 22-50 50 0 28 22 50 50 50 28 0 50-22 50-50z m200 0c0-28-22-50-50-50-28 0-50 22-50 50 0 28 22 50 50 50 28 0 50-22 50-50z" horiz-adv-x="1000" />

<glyph glyph-name="refresh-1" unicode="&#xe89e;" d="M500 729c-211 0-379-170-379-379 0-21-17-37-38-37-20 0-37 16-37 37 0 251 202 454 454 454 150 0 263-62 337-124 16-14 30-27 42-40v103c0 21 17 38 38 38 20 0 37-17 37-38v-208c0-21-17-37-37-37h-185c-21 0-38 16-38 37 0 21 17 38 38 38h108c-14 15-31 32-51 49-65 54-161 107-289 107z m417-341c20 0 37-17 37-38 0-251-203-454-454-454-128 0-229 64-297 125-13 12-25 25-36 36v-100c0-21-17-38-37-38-21 0-38 17-38 38v208c0 21 17 38 38 38h188c21 0 37-17 37-38 0-21-16-37-37-37h-113c13-16 30-34 49-51 60-55 144-106 246-106 209 0 379 170 379 379 0 21 17 38 38 38z" horiz-adv-x="1000" />

<glyph glyph-name="text-variable" unicode="&#xe89f;" d="M100 640c0 19 16 35 35 35h730c19 0 35-16 35-35v-5c0-19-16-35-35-35h-730c-19 0-35 16-35 35v5z m0-287c0 19 16 35 35 35h730c19 0 35-16 35-35v-5c0-20-16-35-35-35h-730c-19 0-35 15-35 35v5z m0-288c0 19 16 35 35 35h430c19 0 35-16 35-35v-5c0-19-16-35-35-35h-430c-19 0-35 16-35 35v5z" horiz-adv-x="1000" />

<glyph glyph-name="header-horizontal" unicode="&#xe8a0;" d="M125 726c57 57 142 78 250 78h250c108 0 193-21 251-78 57-58 78-143 78-251v-250c0-108-21-193-78-251-58-57-143-78-251-78h-250c-108 0-193 21-250 78-58 58-79 143-79 251v250c0 108 21 193 79 251z m53-54c-37-36-57-96-57-197v-250c0-100 20-161 57-197 36-37 97-57 197-57h250c101 0 161 20 197 57 37 36 57 97 57 197v250c0 101-20 161-57 197-36 37-96 57-197 57h-250c-100 0-161-20-197-57z m-132-239c0 21 17 38 37 38h834c20 0 37-17 37-38 0-20-17-37-37-37h-834c-20 0-37 17-37 37z" horiz-adv-x="1000" />

<glyph glyph-name="edit-1" unicode="&#xe8a1;" d="M673 646c-31 0-68-12-104-48l0 0c-30-30-61-61-92-92-91-90-178-177-224-224-9-9-19-27-27-53-8-26-14-55-17-84-4-29-5-56-5-76 0-5 1-10 1-14 3 0 8 0 12 0 21-1 48 0 77 3 29 3 59 9 85 17 26 9 44 18 53 28 48 49 141 142 236 237 27 26 54 53 80 79 36 36 48 73 48 104-1 33-15 63-37 86-23 22-53 36-86 37z m198-122c1-54-21-109-70-158l0 0c-26-26-53-53-80-80-95-94-188-187-236-236-22-22-53-37-84-46-31-10-66-17-98-21-33-3-64-5-89-4-12 1-24 2-34 4-4 1-10 2-15 4-4 2-13 5-20 14-6 7-9 15-10 19-1 4-2 9-3 14-2 10-2 21-3 33 0 25 1 55 5 87 4 32 11 67 20 98 10 30 24 61 45 82 46 47 134 135 225 226 31 30 62 61 92 91l27-26-27 26c49 49 104 71 158 70 54-1 102-24 138-59 35-36 58-84 59-138z m-377 82c15 14 39 14 53 0l188-188c15-14 15-38 0-53-15-14-38-14-53 0l-188 188c-14 14-14 38 0 53z m52-589c0 20 17 37 37 37h209c20 0 37-17 37-37 0-21-17-38-37-38h-209c-20 0-37 17-37 38z" horiz-adv-x="1000" />

<glyph glyph-name="credit-usage-0" unicode="&#xe8a2;" d="M497 763l3 0 3 0c21-1 37-18 37-38 0-21-17-38-37-37l-3 0-2 0c-21-1-38 16-38 37 0 20 16 37 37 38z m156-68c10 18 33 24 51 14 1-1 3-2 5-3 18-11 24-34 13-52-10-17-33-23-51-13-1 1-3 2-4 3-18 10-25 33-14 51z m-306 0c11-18 4-41-14-51-1-1-2-2-4-3-18-10-41-4-51 13-11 18-5 41 13 52 2 1 4 2 5 3 18 10 41 4 51-14z m457-123c18 11 41 5 52-13 1-2 2-4 3-5 10-18 4-41-14-51-18-11-41-4-51 14-1 1-2 3-3 4-10 18-4 41 13 51z m-608 0c17-10 23-33 13-51-1-1-2-3-3-4-10-18-33-25-51-14-18 10-24 33-14 51 1 1 2 3 3 5 11 18 34 24 52 13z m679-182c20 0 37-16 38-37l0-3 0-3c-1-21-18-37-38-37-21 0-38 17-37 38l0 2 0 3c-1 20 16 37 37 37z m-750 0c21 0 38-17 38-37l0-3 0-2c0-21-17-38-38-38-20 0-37 16-37 37l0 3 0 3c0 21 17 37 37 37z m30-193c18 11 41 4 51-14 1-1 2-2 3-4 10-18 4-41-13-51-18-11-41-5-52 13-1 2-2 4-3 5-10 18-4 41 14 51z m690 0c18-10 24-33 14-51-1-1-2-3-3-5-11-18-34-24-52-13-17 10-23 33-13 51 1 2 2 3 3 4 10 18 33 25 51 14z m-123-151c11-18 5-41-13-52-2-1-4-2-5-3-18-10-41-4-51 14-11 18-4 41 14 51 1 1 3 2 4 3 18 10 41 4 51-13z m-444 0c10 17 33 23 51 13 2-1 3-2 4-3 18-10 25-33 14-51-10-18-33-24-51-14-1 1-3 2-5 3-18 11-24 34-13 52z m182-71c0 21 17 38 38 38l2 0 3 0c20 0 37-17 37-38 0-20-16-37-37-38l-3 0-3 0c-21 1-37 18-37 38z" horiz-adv-x="1000" />

<glyph glyph-name="credit-usage-25" unicode="&#xe8a3;" d="M463 725c0 21 16 38 37 38 109 0 214-44 292-121 77-78 121-183 121-292 0-21-17-37-38-37-21 0-37 16-37 37 0 90-36 175-99 239-64 63-149 99-239 99-21 0-37 16-37 37z m34 38l3 0 3 0c21-1 37-18 37-38 0-21-17-38-37-37l-3 0-2 0c-21-1-38 16-38 37 0 20 16 37 37 38z m156-68c10 18 33 24 51 14 1-1 3-2 5-3 18-11 24-34 13-52-10-17-33-23-51-13-1 1-3 2-4 3-18 10-25 33-14 51z m-306 0c11-18 4-41-14-51-1-1-2-2-4-3-18-10-41-4-51 13-11 18-5 41 13 52 2 1 4 2 5 3 18 10 41 4 51-14z m457-123c18 11 41 5 52-13 1-2 2-4 3-5 10-18 4-41-14-51-18-11-41-4-51 14-1 1-2 3-3 4-10 18-4 41 13 51z m-608 0c17-10 23-33 13-51-1-1-2-3-3-4-10-18-33-25-51-14-18 10-24 33-14 51 1 1 2 3 3 5 11 18 34 24 52 13z m679-182c20 0 37-16 38-37l0-3 0-3c-1-21-18-37-38-37-21 0-38 17-37 38l0 2 0 3c-1 20 16 37 37 37z m-750 0c21 0 38-17 38-37l0-3 0-2c0-21-17-38-38-38-20 0-37 16-37 37l0 3 0 3c0 21 17 37 37 37z m30-193c18 11 41 4 51-14 1-1 2-2 3-4 10-18 4-41-13-51-18-11-41-5-52 13-1 2-2 4-3 5-10 18-4 41 14 51z m690 0c18-10 24-33 14-51-1-1-2-3-3-5-11-18-34-24-52-13-17 10-23 33-13 51 1 2 2 3 3 4 10 18 33 25 51 14z m-123-151c11-18 5-41-13-52-2-1-4-2-5-3-18-10-41-4-51 14-11 18-4 41 14 51 1 1 3 2 4 3 18 10 41 4 51-13z m-444 0c10 17 33 23 51 13 2-1 3-2 4-3 18-10 25-33 14-51-10-18-33-24-51-14-1 1-3 2-5 3-18 11-24 34-13 52z m182-71c0 21 17 38 38 38l2 0 3 0c20 0 37-17 37-38 0-20-16-37-37-38l-3 0-3 0c-21 1-37 18-37 38z" horiz-adv-x="1000" />

<glyph glyph-name="credit-usage-75" unicode="&#xe8a4;" d="M497 763l3 0 3 0c21-1 37-18 37-38 0-21-17-38-37-37l-3 0-2 0c-21-1-38 16-38 37 0 20 16 37 37 38z m156-68c10 18 33 24 51 14 1-1 3-2 5-3 18-11 24-34 13-52-10-17-33-23-51-13-1 1-3 2-4 3-18 10-25 33-14 51z m-306 0c11-18 4-41-14-51-1-1-2-2-4-3-18-10-41-4-51 13-11 18-5 41 13 52 2 1 4 2 5 3 18 10 41 4 51-14z m457-123c18 11 41 5 52-13 1-2 2-4 3-5 10-18 4-41-14-51-18-11-41-4-51 14-1 1-2 3-3 4-10 18-4 41 13 51z m-608 0c17-10 23-33 13-51-1-1-2-3-3-4-10-18-33-25-51-14-18 10-24 33-14 51 1 1 2 3 3 5 11 18 34 24 52 13z m679-182c20 0 37-16 38-37l0-3 0-3c-1-21-18-37-38-37-21 0-38 17-37 38l0 2 0 3c-1 20 16 37 37 37z m-750 0c21 0 38-17 38-37l0-3 0-2c0-21-17-38-38-38-20 0-37 16-37 37l0 3 0 3c0 21 17 37 37 37z m30-193c18 11 41 4 51-14 1-1 2-2 3-4 10-18 4-41-13-51-18-11-41-5-52 13-1 2-2 4-3 5-10 18-4 41 14 51z m690 0c18-10 24-33 14-51-1-1-2-3-3-5-11-18-34-24-52-13-17 10-23 33-13 51 1 2 2 3 3 4 10 18 33 25 51 14z m-123-151c11-18 5-41-13-52-2-1-4-2-5-3-18-10-41-4-51 14-11 18-4 41 14 51 1 1 3 2 4 3 18 10 41 4 51-13z m-444 0c10 17 33 23 51 13 2-1 3-2 4-3 18-10 25-33 14-51-10-18-33-24-51-14-1 1-3 2-5 3-18 11-24 34-13 52z m182-71c0 21 17 38 38 38l2 0 3 0c20 0 37-17 37-38 0-20-16-37-37-38l-3 0-3 0c-21 1-37 18-37 38z m3 750c0 21 16 38 37 38 109 0 214-44 292-121 77-78 121-183 121-292 0-109-44-214-121-292-78-77-183-121-292-121-109 0-214 44-292 121-77 78-120 183-120 292 0 21 16 38 37 38 21 0 38-17 38-38 0-89 35-175 98-239 64-63 150-98 239-98 90 0 175 35 239 98 63 64 99 150 99 239 0 90-36 175-99 239-64 63-149 99-239 99-21 0-37 16-37 37z" horiz-adv-x="1000" />

<glyph glyph-name="card" unicode="&#xe8a5;" d="M917 465h-834c-17 0-31 14-31 31 0 17 14 31 31 31h834c17 0 31-14 31-31 0-17-14-31-31-31z m-584-334h-83c-17 0-31 14-31 32 0 17 14 31 31 31h83c17 0 32-14 32-31 0-18-15-32-32-32z m271 0h-166c-18 0-32 14-32 32 0 17 14 31 32 31h166c17 0 31-14 31-31 0-18-14-32-31-32z m128-166h-464c-165 0-216 50-216 214v342c0 164 51 214 216 214h463c166 0 217-50 217-214v-342c0-164-50-214-216-214z m-464 708c-130 0-153-23-153-152v-342c0-129 23-151 153-151h463c131 0 154 22 154 151v342c0 129-23 152-154 152h-463z" horiz-adv-x="1000" />

<glyph glyph-name="credit-usage-100" unicode="&#xe8a6;" d="M500 688c-186 0-337-152-337-338 0-186 151-337 337-337 186 0 338 151 338 337 0 186-152 338-338 338z m-412-338c0 228 184 413 412 413 228 0 413-185 413-413 0-228-185-413-413-413-228 0-412 185-412 413z" horiz-adv-x="1000" />

<glyph glyph-name="coding-language" unicode="&#xe8ab;" d="M500-99c-29 0-56 14-75 40l-62 83c-2 2-7 4-9 4h-21c-173 0-281 47-281 282v208c0 184 97 281 281 281h334c184 0 281-97 281-281v-208c0-185-97-282-281-282h-21c-3 0-6-1-8-4l-63-83c-19-26-46-40-75-40z m-167 836c-149 0-218-70-218-219v-208c0-189 64-219 218-219h21c21 0 46-12 59-29l62-84c15-19 35-19 50 0l63 84c13 18 35 29 58 29h21c149 0 218 69 218 219v208c0 149-69 219-218 219h-334z m0-447c-8 0-15 3-22 9l-83 83c-12 12-12 32 0 44l83 84c12 12 32 12 44 0 13-12 13-32 0-45l-61-61 61-61c13-12 13-32 0-44-6-6-14-9-22-9z m334 0c-8 0-16 3-22 9-12 12-12 32 0 44l61 61-61 61c-12 13-12 33 0 45 12 12 32 12 44 0l83-84c12-12 12-32 0-44l-83-83c-6-6-14-9-22-9z m-209-14c-4 0-8 1-12 2-16 7-23 25-16 42l83 194c7 16 25 24 41 16 16-6 24-25 16-41l-83-194c-5-12-17-19-29-19z" horiz-adv-x="1000" />

<glyph glyph-name="table" unicode="&#xe8ad;" d="M625-98h-250c-226 0-323 97-323 323v250c0 226 97 323 323 323h250c226 0 323-97 323-323v-250c0-226-97-323-323-323z m-250 833c-192 0-260-68-260-260v-250c0-192 68-260 260-260h250c192 0 260 68 260 260v250c0 192-68 260-260 260h-250z m42-833c-17 0-32 14-32 31v834c0 17 15 31 32 31 17 0 31-14 31-31v-834c0-17-14-31-31-31z m500 563h-500c-17 0-32 14-32 31 0 17 15 31 32 31h500c17 0 31-14 31-31 0-17-14-31-31-31z m0-292h-500c-17 0-32 14-32 31 0 17 15 31 32 31h500c17 0 31-14 31-31 0-17-14-31-31-31z" horiz-adv-x="1000" />

<glyph glyph-name="check" unicode="&#xe8ae;" d="M417 218l383 383 59-59-442-442-265 265 58 59 207-206z" horiz-adv-x="1000" />

<glyph glyph-name="logo-google" unicode="&#xe8af;" d="M500 621c-51 0-101-14-144-42-43-27-78-65-100-111-22-46-31-97-25-147 5-51 25-99 57-139 31-40 73-70 121-87 48-17 100-20 150-9 49 11 95 35 131 71 36 36 62 81 74 131h-222c-17 0-33 6-44 18-12 12-19 27-19 44 0 17 7 33 19 44 11 12 27 19 44 19h291c17 0 33-7 45-19 11-11 18-27 18-44 0-91-32-180-90-251-58-71-139-119-228-137-90-18-183-4-264 39-81 43-144 113-179 197-36 85-40 179-14 266 26 88 82 164 158 215 76 51 168 74 259 65 91-9 176-49 241-113 6-6 11-13 14-21 3-7 5-15 5-23 0-9-2-17-5-24-3-8-8-15-14-21-5-5-12-10-20-13-7-3-16-5-24-5-16 0-32 6-44 18-51 51-119 79-191 79z" horiz-adv-x="1000" />

<glyph glyph-name="data-date" unicode="&#xe8b0;" d="M333 610c-17 0-31 15-31 32v125c0 17 14 31 31 31 17 0 32-14 32-31v-125c0-17-15-32-32-32z m334 0c-17 0-32 15-32 32v125c0 17 15 31 32 31 17 0 31-14 31-31v-125c0-17-14-32-31-32z m187-170h-708c-17 0-31 14-31 31 0 17 14 32 31 32h708c17 0 31-15 31-32 0-17-14-31-31-31z m-187-538h-334c-152 0-239 88-239 240v354c0 152 87 239 239 239h334c152 0 239-87 239-239v-354c0-152-87-240-239-240z m-334 771c-119 0-177-58-177-177v-354c0-119 58-177 177-177h334c119 0 177 58 177 177v354c0 119-58 177-177 177h-334z m21-427c-5 0-11 1-16 3-5 2-9 5-13 9-4 4-7 9-9 14-2 5-3 10-3 16 0 10 4 21 12 29 4 4 8 7 13 9 8 3 16 4 25 2 2 0 5-1 7-2 3-1 5-2 8-4 2-2 4-3 6-5 1-2 4-4 5-6 1-3 3-5 4-8 1-2 2-5 2-7 0-3 1-6 1-8 0-11-5-22-12-30-8-8-19-12-30-12z m146 0c-11 0-22 4-30 12-1 2-3 4-5 6-1 3-2 5-3 8-2 2-2 5-3 7 0 3-1 6-1 9 0 5 2 10 4 15 2 5 5 10 8 14 12 12 31 16 46 9 5-2 9-5 14-9 7-8 12-19 12-29 0-3-1-6-1-9-1-2-1-5-3-7 0-3-2-5-3-8-2-2-4-4-5-6-5-4-9-7-14-9-5-2-11-3-16-3z m-146-146c-5 0-11 1-16 3-5 2-9 5-13 9-4 4-7 8-9 14-2 5-3 10-3 16 0 11 4 21 12 29 4 4 8 7 13 9 16 7 34 3 46-9 1-2 4-4 5-6 1-2 3-5 4-7 1-3 2-5 2-8 0-3 1-6 1-8 0-11-5-22-12-30-8-7-19-12-30-12z" horiz-adv-x="1000" />

<glyph glyph-name="llms" unicode="&#xe8b1;" d="M676 614c12 17 35 22 52 10 92-64 156-166 168-283 3-21-12-39-33-42-20-2-39 13-41 34-11 95-62 177-137 229-17 12-21 35-9 52z m-350-1c12-17 8-41-9-53-74-52-125-134-134-229-2-21-21-36-41-34-21 2-36 21-34 41 12 117 75 219 166 284 17 11 40 7 52-9z m-18-619c9 19 32 26 50 17 43-22 93-34 145-34 50 0 97 11 139 31 18 9 41 2 50-17 9-19 1-41-18-50-52-26-110-39-171-39-64 0-125 15-179 42-18 9-26 32-16 50z m195 729c-44 0-79-35-79-78 0-43 35-78 79-78 43 0 78 35 78 78 0 43-35 78-78 78z m-154-78c0 85 69 153 154 153 84 0 153-68 153-153 0-85-69-153-153-153-85 0-154 68-154 153z m-148-431c-43 0-78-35-78-78 0-43 35-78 78-78 44 0 79 35 79 78 0 43-35 78-79 78z m-153-78c0 85 69 153 153 153 85 0 154-68 154-153 0-85-69-154-154-154-84 0-153 69-153 154z m751 78c-43 0-79-35-79-78 0-43 36-78 79-78 43 0 78 35 78 78 0 43-35 78-78 78z m-154-78c0 85 69 153 154 153 84 0 153-68 153-153 0-85-69-154-153-154-85 0-154 69-154 154z" horiz-adv-x="1000" />

<glyph glyph-name="icon-logo-openai" unicode="&#xe8b2;" d="M843 423c9 27 12 55 9 83-3 29-12 56-26 80-44 76-132 115-217 97-24 26-54 46-88 57-34 11-70 13-105 6-34-8-66-24-93-48-26-23-46-54-57-87-28-6-54-18-77-34-23-17-42-38-56-63-44-76-34-172 25-237-9-26-13-55-10-83 3-28 12-56 27-80 43-76 131-115 217-97 19-21 42-38 68-50 26-11 54-17 82-17 88 0 166 57 192 140 28 6 55 18 77 34 23 17 43 38 57 63 43 76 33 171-25 236z m-301-421c-35 0-69 13-96 35l5 3 159 92c4 2 7 5 10 9 2 4 3 9 3 13v225l68-39c0 0 1-1 1-2v-186c0-82-67-149-150-150z m-322 138c-18 30-24 66-18 100l5-2 159-92c4-3 9-4 13-4 5 0 9 1 13 4l195 112v-78c0 0 0-1 0-1 0 0-1-1-1-1l-161-93c-72-41-164-17-205 55z m-42 347c18 30 46 54 79 66v-190c0-4 1-9 3-13 3-4 6-7 10-9l194-112-68-39c0 0 0 0-1 0 0 0-1 0-1 0l-161 93c-72 41-96 133-55 205v-1z m553-129l-194 113 67 39c0 0 1 0 1 0 1 0 1 0 1 0l161-93c25-14 45-35 58-60 13-25 19-54 17-82-3-29-13-56-30-78-17-23-41-40-67-50v189c0 5-2 9-4 13-2 4-6 7-10 9z m67 101l-4 3-160 93c-4 2-8 3-13 3-4 0-9-1-13-3l-194-113v78c0 1 0 1 0 1 0 1 0 1 1 1l161 93c24 14 53 21 81 20 28-1 56-11 79-27 24-16 42-39 53-65 11-26 14-55 9-83l0-1z m-421-138l-67 39c-1 0-1 1-1 1 0 0-1 1-1 1v186c0 28 9 56 24 80 15 24 37 43 63 55 25 12 54 17 82 13 29-4 55-15 77-33l-5-3-159-92c-4-2-7-6-9-10-3-4-4-8-4-13l0-224z m37 79l86 50 87-50v-100l-86-50-87 50 0 100z" horiz-adv-x="1000" />

<glyph glyph-name="logo-anthropic" unicode="&#xe8b3;" d="M566 650l239-600h131l-238 600h-132z m-277-362l82 210 82-210h-164z m14 362l-239-600h133l49 126h250l49-126h133l-238 600h-137z" horiz-adv-x="1000" />

<glyph glyph-name="logo-meta" unicode="&#xe8b4;" d="M685 650c-73 0-130-55-181-124-70 90-129 124-200 124-144 0-254-187-254-385 0-124 60-202 160-202 73 0 125 34 217 195 0 0 39 68 65 115 10-15 19-31 30-48l43-73c84-142 132-189 217-189 98 0 152 79 152 205 0 208-113 382-249 382z m-328-348c-75-117-101-144-143-144-43 0-68 38-68 105 0 144 71 291 157 291 46 0 85-27 144-112-56-86-90-140-90-140z m283 15l-52 86c-14 23-28 44-41 63 47 72 86 108 131 108 96 0 172-140 172-312 0-66-22-104-66-104-43 0-63 28-144 159z" horiz-adv-x="1000" />

<glyph glyph-name="data-variant" unicode="&#xe8b5;" d="M488-98h-187c-173 0-250 77-250 250v188c0 173 77 250 250 250h187c173 0 250-77 250-250v-188c0-173-77-250-250-250z m-187 625c-138 0-188-49-188-187v-188c0-138 50-187 188-187h187c139 0 188 49 188 187v188c0 138-49 187-188 187h-187z m406-249c-8 0-15 3-21 9-7 6-10 14-10 23v30c0 138-49 187-188 187h-30c-8 0-17 4-23 10-5 7-8 15-7 24 12 135 123 237 259 237 130 0 241-98 257-226 2-10 3-22 3-35 0-136-102-247-237-259-1 0-2 0-3 0z m-212 312c166-2 241-77 243-243 85 22 146 99 146 191 0 8-1 17-2 25-13 99-97 172-196 172-91 0-168-60-191-145z" horiz-adv-x="1000" />

<glyph glyph-name="chart-1" unicode="&#xe8b6;" d="M917-98h-834c-17 0-31 14-31 31 0 17 14 32 31 32h834c17 0 31-15 31-32 0-17-14-31-31-31z m-323 0h-188c-17 0-31 14-31 31v750c0 72 40 115 106 115h38c66 0 106-43 106-115v-750c0-17-14-31-31-31z m-156 63h125v718c0 48-23 52-44 52h-38c-21 0-43-4-43-52v-718z m-146-63h-167c-17 0-31 14-31 31v500c0 72 36 115 98 115h33c61 0 98-43 98-115v-500c0-17-14-31-31-31z m-136 63h104v468c0 52-22 52-35 52h-33c-13 0-36 0-36-52v-468z m719-63h-167c-17 0-31 14-31 31v292c0 72 37 115 98 115h33c62 0 98-43 98-115v-292c0-17-14-31-31-31z m-135 63h104v260c0 52-23 52-36 52h-33c-12 0-35 0-35-52v-260z" horiz-adv-x="1000" />

<glyph glyph-name="code" unicode="&#xe8d7;" d="M287 194c-11 0-22 6-28 17-8 15-1 34 14 42 37 18 68 45 90 79 7 11 7 25 0 36-23 34-54 61-90 79-15 8-22 26-14 42 8 16 27 22 42 14 46-23 85-58 113-100 22-32 22-74 0-106-28-42-67-77-113-100-4-2-9-3-14-3z m421 0h-166c-17 0-32 14-32 31 0 17 15 31 32 31h166c17 0 32-14 32-31 0-17-15-31-32-31z m-83-292h-250c-226 0-323 97-323 323v250c0 226 97 323 323 323h250c226 0 323-97 323-323v-250c0-226-97-323-323-323z m-250 833c-192 0-260-68-260-260v-250c0-192 68-260 260-260h250c192 0 260 68 260 260v250c0 192-68 260-260 260h-250z" horiz-adv-x="1000" />

<glyph glyph-name="code-1" unicode="&#xe8d8;" d="M375 110c-4 0-9 2-14 4-32 16-59 40-79 70-17 25-17 57 0 82 20 30 47 54 79 70 16 8 35 2 42-14 8-15 2-34-14-42-22-11-41-28-55-49-3-4-3-9 0-13 14-21 33-38 55-49 16-8 22-27 14-42-5-10-17-17-28-17z m259 0c-12 0-23 7-28 18-8 15-2 34 14 42 23 11 42 28 55 49 3 4 3 9 0 13-13 21-32 38-55 49-15 8-22 27-14 42 8 15 27 22 42 14 32-16 60-40 80-70 16-25 16-57 0-82-20-30-48-55-80-70-5-3-10-5-14-5z m-9-208h-250c-226 0-323 97-323 323v250c0 226 97 323 323 323h250c226 0 323-97 323-323v-250c0-226-97-323-323-323z m-250 833c-192 0-260-68-260-260v-250c0-192 68-260 260-260h250c192 0 260 68 260 260v250c0 192-68 260-260 260h-250z m-282-250c-17 0-31 14-31 31 0 17 13 32 31 32l801 0c17 0 31-14 31-31 0-17-14-32-31-32l-801 0z" horiz-adv-x="1000" />

<glyph glyph-name="code-circle" unicode="&#xe8d9;" d="M333 235c-8 0-15 3-22 10l-83 83c-12 12-12 32 0 44l83 83c12 13 32 13 44 0 13-12 13-32 0-44l-61-61 61-61c13-12 13-32 0-44-6-7-14-10-22-10z m334 0c-8 0-16 3-22 10-12 12-12 32 0 44l61 61-61 61c-12 12-12 32 0 44 12 13 32 13 44 0l83-83c12-12 12-32 0-44l-83-83c-6-7-14-10-22-10z m-167-333c-247 0-448 201-448 448 0 247 201 448 448 448 247 0 448-201 448-448 0-247-201-448-448-448z m0 833c-212 0-385-172-385-385 0-212 173-385 385-385 213 0 385 173 385 385 0 213-172 385-385 385z m-42-513c-4 0-8 1-12 2-16 7-23 25-16 41l83 195c7 16 25 23 41 16 16-6 24-25 16-41l-83-195c-5-11-17-18-29-18z" horiz-adv-x="1000" />

<glyph glyph-name="command-square" unicode="&#xe8e1;" d="M600 219h-200c-17 0-31 14-31 31v200c0 17 14 31 31 31h200c17 0 31-14 31-31v-200c0-17-14-31-31-31z m-169 62h138v138h-138v-138z m-106-212c-59 0-106 47-106 106 0 59 47 106 106 106h75c17 0 31-14 31-31v-75c0-59-47-106-106-106z m0 150c-24 0-44-20-44-44 0-24 20-44 44-44 24 0 44 20 44 44v44h-44z m75 200h-75c-59 0-106 47-106 106 0 59 47 106 106 106 59 0 106-47 106-106v-75c0-17-14-31-31-31z m-75 150c-24 0-44-20-44-44 0-24 20-44 44-44h44v44c0 24-20 44-44 44z m350-150h-75c-17 0-31 14-31 31v75c0 59 47 106 106 106 59 0 106-47 106-106 0-59-47-106-106-106z m-44 62h44c24 0 44 20 44 44 0 24-20 44-44 44-24 0-44-20-44-44v-44z m44-412c-59 0-106 47-106 106v75c0 17 14 31 31 31h75c59 0 106-47 106-106 0-59-47-106-106-106z m-44 150v-44c0-24 20-44 44-44 24 0 44 20 44 44 0 24-20 44-44 44h-44z m-6-317h-250c-226 0-323 97-323 323v250c0 226 97 323 323 323h250c226 0 323-97 323-323v-250c0-226-97-323-323-323z m-250 833c-192 0-260-68-260-260v-250c0-192 68-260 260-260h250c192 0 260 68 260 260v250c0 192-68 260-260 260h-250z" horiz-adv-x="1000" />

<glyph glyph-name="component" unicode="&#xe8e2;" d="M500-98c-49 0-94 19-128 53l-267 266c-34 34-52 80-52 129 0 48 18 94 52 128l267 266c34 34 80 53 128 53 48 0 94-19 128-53l267-266c34-34 53-80 53-128 0-49-19-95-53-129l-267-266c-34-34-79-53-128-53z m0 833c-32 0-62-12-84-34l-266-266c-23-23-35-53-35-85 0-31 13-62 35-84l266-266c44-45 124-45 168 0l266 266c23 23 35 52 35 84 0 33-12 63-35 85l-266 266c-22 22-52 34-84 34z" horiz-adv-x="1000" />

<glyph glyph-name="copy" unicode="&#xe8e9;" d="M463-98h-175c-163 0-236 73-236 236v175c0 162 73 235 236 235h175c162 0 235-73 235-235v-175c0-163-73-236-235-236z m-175 583c-130 0-173-43-173-172v-175c0-130 43-173 173-173h175c129 0 172 43 172 173v175c0 129-43 172-172 172h-175z m425-333h-46c-17 0-32 14-32 31v130c0 129-43 172-172 172h-130c-17 0-31 15-31 32v46c0 162 73 235 236 235h175c162 0 235-73 235-235v-175c0-163-73-236-235-236z m-15 63h15c129 0 172 43 172 173v175c0 129-43 172-172 172h-175c-130 0-173-43-173-172v-15h98c162 0 235-73 235-235v-98z" horiz-adv-x="1000" />

<glyph glyph-name="danger" unicode="&#xe8f5;" d="M500 235c-17 0-31 15-31 32v208c0 17 14 31 31 31 17 0 31-14 31-31v-208c0-17-14-32-31-32z m0-135c-2 0-5 0-8 1-3 0-5 1-8 2-2 1-5 2-7 4-2 2-4 3-7 5-7 8-12 19-12 30 0 11 5 21 12 29 3 2 5 4 7 5 2 2 5 3 7 4 3 1 5 2 8 3 5 1 11 1 16 0 3-1 5-2 8-3 2-1 5-2 7-4 2-1 5-3 7-5 7-8 12-18 12-29 0-11-5-22-12-30-2-2-5-3-7-5-2-2-5-3-7-4-3-1-5-2-8-2-3-1-5-1-8-1z m253-173h-505c-82 0-144 29-175 83-32 53-28 122 12 193l253 454c41 75 99 116 162 116 63 0 121-41 163-116l252-454c40-72 44-140 13-194-32-53-94-82-175-82z m-253 784c-39 0-77-30-108-84l-252-455c-28-51-33-97-13-131 19-34 63-52 121-52h505c58 0 101 18 121 52 20 34 15 80-13 131l-253 455c-30 54-69 84-108 84z" horiz-adv-x="1000" />

<glyph glyph-name="visualization" unicode="&#xe8fc;" d="M917-98h-709c-86 0-156 70-156 156v709c0 17 14 31 31 31 17 0 32-14 32-31v-709c0-51 42-93 93-93h709c17 0 31-15 31-32 0-17-14-31-31-31z m-709 208c-7 0-14 3-20 8-13 11-15 31-3 44l191 223c21 25 51 39 82 40 32 1 63-10 86-33l39-39c11-11 25-16 39-16 15 1 28 7 38 18l191 224c11 13 31 14 44 3 13-11 15-31 3-44l-191-223c-21-25-51-39-82-40-32-1-63 10-86 33l-39 40c-10 10-24 15-39 15-14 0-28-7-37-18l-191-224c-7-7-16-11-25-11z" horiz-adv-x="1000" />

<glyph glyph-name="document-1" unicode="&#xe911;" d="M625-98h-250c-226 0-323 97-323 323v250c0 226 97 323 323 323h208c17 0 32-14 32-31 0-17-15-32-32-32h-208c-192 0-260-68-260-260v-250c0-192 68-260 260-260h250c192 0 260 68 260 260v208c0 17 15 32 32 32 17 0 31-15 31-32v-208c0-226-97-323-323-323z m292 500h-167c-142 0-198 56-198 198v167c0 12 8 24 19 28 12 5 25 3 34-6l334-334c9-8 11-22 6-34-5-11-16-19-28-19z m-302 289v-91c0-107 28-135 135-135h91l-226 226z" horiz-adv-x="1000" />

<glyph glyph-name="document-code" unicode="&#xe913;" d="M667-98h-334c-152 0-239 88-239 240v416c0 152 87 240 239 240h334c152 0 239-88 239-240v-416c0-152-87-240-239-240z m-334 833c-119 0-177-57-177-177v-416c0-119 58-177 177-177h334c119 0 177 58 177 177v416c0 120-58 177-177 177h-334z m438-270h-83c-64 0-115 51-115 114v84c0 17 14 31 31 31 17 0 31-14 31-31v-84c0-29 24-52 53-52h83c17 0 31-14 31-31 0-17-14-31-31-31z m-354-355c-8 0-16 3-22 10l-84 83c-12 12-12 32 0 44l84 83c12 13 32 13 44 0 12-12 12-32 0-44l-61-61 61-61c12-12 12-32 0-44-6-7-14-10-22-10z m166 0c-8 0-15 3-22 10-12 12-12 32 0 44l62 61-62 61c-12 12-12 32 0 44 12 13 32 13 44 0l84-83c12-12 12-32 0-44l-84-83c-6-7-14-10-22-10z" horiz-adv-x="1000" />

<glyph glyph-name="document-download" unicode="&#xe916;" d="M375 110c-4 0-8 1-12 3-12 5-19 16-19 29v250c0 17 14 31 31 31 17 0 31-14 31-31v-175l30 30c12 12 32 12 44 0 13-12 13-32 0-44l-83-83c-6-6-14-10-22-10z m0 0c-8 0-16 3-22 10l-83 83c-12 12-12 32 0 44 12 12 32 12 44 0l83-83c12-12 12-32 0-44-6-7-14-10-22-10z m250-208h-250c-226 0-323 97-323 323v250c0 226 97 323 323 323h208c17 0 32-14 32-31 0-17-15-32-32-32h-208c-192 0-260-68-260-260v-250c0-192 68-260 260-260h250c192 0 260 68 260 260v208c0 17 15 32 32 32 17 0 31-15 31-32v-208c0-226-97-323-323-323z m292 500h-167c-142 0-198 56-198 198v167c0 12 8 24 19 28 12 5 25 3 34-6l334-334c9-8 11-22 6-34-5-11-16-19-28-19z m-302 289v-91c0-107 28-135 135-135h91l-226 226z" horiz-adv-x="1000" />

<glyph glyph-name="document-text-1" unicode="&#xe91f;" d="M625-98h-250c-226 0-323 97-323 323v250c0 226 97 323 323 323h208c17 0 32-14 32-31 0-17-15-32-32-32h-208c-192 0-260-68-260-260v-250c0-192 68-260 260-260h250c192 0 260 68 260 260v208c0 17 15 32 32 32 17 0 31-15 31-32v-208c0-226-97-323-323-323z m292 500h-167c-142 0-198 56-198 198v167c0 12 8 24 19 28 12 5 25 3 34-6l334-334c9-8 11-22 6-34-5-11-16-19-28-19z m-302 289v-91c0-107 28-135 135-135h91l-226 226z m-73-414h-250c-17 0-32 14-32 31 0 17 15 32 32 32h250c17 0 31-15 31-32 0-17-14-31-31-31z m-84-167h-166c-17 0-32 15-32 32 0 17 15 31 32 31h166c17 0 32-14 32-31 0-17-15-32-32-32z" horiz-adv-x="1000" />

<glyph glyph-name="document-upload" unicode="&#xe920;" d="M375 110c-17 0-31 15-31 32v174l-30-30c-12-12-32-12-44 0-12 12-12 32 0 44l83 84c9 9 22 11 34 6 12-4 19-16 19-28v-250c0-17-14-32-31-32z m83 167c-8 0-15 3-22 9l-83 84c-12 12-12 32 0 44 12 12 32 12 44 0l83-84c13-12 13-32 0-44-6-6-14-9-22-9z m167-375h-250c-226 0-323 97-323 323v250c0 226 97 323 323 323h208c17 0 32-14 32-31 0-17-15-32-32-32h-208c-192 0-260-68-260-260v-250c0-192 68-260 260-260h250c192 0 260 68 260 260v208c0 17 15 32 32 32 17 0 31-15 31-32v-208c0-226-97-323-323-323z m292 500h-167c-142 0-198 56-198 198v167c0 12 8 24 19 28 12 5 25 3 34-6l334-334c9-8 11-22 6-34-5-11-16-19-28-19z m-302 289v-91c0-107 28-135 135-135h91l-226 226z" horiz-adv-x="1000" />

<glyph glyph-name="edit" unicode="&#xe927;" d="M625-98h-250c-226 0-323 97-323 323v250c0 226 97 323 323 323h83c17 0 32-14 32-31 0-17-15-32-32-32h-83c-192 0-260-68-260-260v-250c0-192 68-260 260-260h250c192 0 260 68 260 260v83c0 17 15 32 32 32 17 0 31-15 31-32v-83c0-226-97-323-323-323z m-271 211c-25 0-49 9-66 26-20 20-29 50-24 81l18 125c3 25 19 56 36 73l328 328c83 83 167 83 250 0 46-45 66-91 62-138-4-37-24-74-62-111l-328-329c-17-17-48-33-73-36l-125-18c-5-1-11-1-16-1z m336 589l-328-328c-8-8-17-26-19-37l-18-126c-1-12 1-22 8-28 6-6 16-9 28-7l125 18c11 1 30 11 37 19l329 328c27 27 41 51 43 74 3 27-12 55-43 88-67 66-113 47-162-1z m137-262c-3 0-6 1-8 2-110 31-197 118-228 227-4 17 5 34 22 39 17 5 34-5 38-22 25-88 96-159 184-184 17-4 27-22 22-39-4-14-16-23-30-23z" horiz-adv-x="1000" />

<glyph glyph-name="edit-2" unicode="&#xe928;" d="M231 37c-26 0-49 8-66 25-22 20-32 51-29 84l16 135c3 26 18 59 36 78l342 362c85 90 175 93 265 7 90-85 93-174 8-265l-343-362c-17-18-50-36-75-40l-134-23c-7 0-13-1-20-1z m433 692c-32 0-60-20-89-50l-342-363c-8-8-18-29-19-41l-16-135c-1-14 2-25 10-32 7-8 18-10 32-8l134 23c12 2 32 13 41 22l342 362c51 55 70 106-5 176-34 32-62 46-88 46z m59-335c-1 0-3 0-3 0-130 13-235 111-255 241-2 17 9 33 26 35 17 3 33-9 36-26 16-101 98-178 199-188 17-2 30-17 28-34-2-16-16-28-31-28z m152-492h-750c-17 0-31 14-31 31 0 17 14 32 31 32h750c17 0 31-15 31-32 0-17-14-31-31-31z" horiz-adv-x="1000" />

<glyph glyph-name="eraser-1" unicode="&#xe939;" d="M875-98h-500c-17 0-31 14-31 31 0 17 14 32 31 32h500c17 0 31-15 31-32 0-17-14-31-31-31z m-519 2c-42 0-81 16-111 46l-146 146c-61 61-61 160 0 221l435 434c59 59 162 59 221 0l146-146c61-61 61-160 0-221l-435-434c-29-30-68-46-110-46z m-213 236l147-147c35-35 97-35 132 0l435 435c36 37 36 96 0 132l-147 147c-35 35-97 35-132 0l-435-435c-36-36-36-96 0-132z m477-25c-8 0-16 3-22 10l-323 323c-12 12-12 32 0 44 12 12 32 12 44 0l323-323c12-12 12-32 0-44-7-7-14-10-22-10z m-473-32c-8 0-16 3-22 9-12 12-12 32 0 44l236 236c12 12 32 12 44 0 12-12 12-32 0-44l-236-236c-6-6-14-9-22-9z m117-118c-8 0-16 3-22 9-12 12-12 32 0 44l236 236c12 12 32 12 44 0 12-12 12-32 0-44l-236-236c-6-6-13-9-22-9z" horiz-adv-x="1000" />

<glyph glyph-name="export-1" unicode="&#xe93b;" d="M636-77h-272c-204 0-292 87-292 292v5c0 185 73 275 236 290 17 1 33-11 35-28 1-17-11-33-29-34-131-13-179-74-179-228v-5c0-170 60-230 229-230h272c169 0 229 60 229 230v5c0 155-49 216-182 228-18 1-30 16-29 33 2 17 16 30 34 29 166-15 240-104 240-290v-6c0-204-88-291-292-291z m-136 271c-17 0-31 14-31 31v474c0 17 14 31 31 31 17 0 31-14 31-31v-474c0-17-14-31-31-31z m140 381c-8 0-16 3-22 9l-118 118-117-118c-13-12-33-12-45 0-12 12-12 32 0 44l140 140c12 12 32 12 44 0l140-140c12-12 12-32 0-44-6-6-14-9-22-9z" horiz-adv-x="1000" />

<glyph glyph-name="export-3" unicode="&#xe93d;" d="M542 360c-8 0-16 3-22 10-12 12-12 32 0 44l341 341c12 13 32 13 44 0 13-12 13-32 0-44l-341-341c-6-7-14-10-22-10z m375 175c-17 0-32 15-32 32v168h-168c-17 0-32 15-32 32 0 17 15 31 32 31h200c17 0 31-14 31-31v-200c0-17-14-32-31-32z m-292-633h-250c-226 0-323 97-323 323v250c0 226 97 323 323 323h83c17 0 32-14 32-31 0-17-15-32-32-32h-83c-192 0-260-68-260-260v-250c0-192 68-260 260-260h250c192 0 260 68 260 260v83c0 17 15 32 32 32 17 0 31-15 31-32v-83c0-226-97-323-323-323z" horiz-adv-x="1000" />

<glyph glyph-name="eye" unicode="&#xe93f;" d="M500 170c-100 0-180 80-180 180 0 100 80 180 180 180 100 0 180-80 180-180 0-100-80-180-180-180z m0 298c-65 0-118-53-118-118 0-65 53-118 118-118 65 0 118 53 118 118 0 65-53 118-118 118z m0-494c-157 0-305 92-406 251-44 69-44 181 0 250 102 159 250 251 406 251 156 0 304-92 406-251 44-69 44-181 0-250-102-159-250-251-406-251z m0 689c-135 0-263-80-353-222-32-48-32-133 0-182 90-141 218-222 353-222 135 0 263 81 353 222 32 49 32 134 0 182-90 142-218 222-353 222z" horiz-adv-x="1000" />

<glyph glyph-name="eye-slash" unicode="&#xe940;" d="M395 213c-8 0-16 3-22 10-35 34-53 79-53 127 0 100 80 180 180 180 48 0 93-18 128-52 5-6 9-14 9-23 0-8-4-16-9-22l-211-210c-7-7-14-10-22-10z m105 255c-65 0-118-53-118-118 0-21 6-41 16-58l160 161c-17 10-37 15-58 15z m-267-389c-7 0-14 2-20 7-45 38-85 85-119 139-44 69-44 181 0 250 102 159 250 251 406 251 92 0 182-32 261-91 14-11 17-30 7-44-11-14-30-17-44-6-69 51-146 78-224 78-135 0-263-80-353-222-32-48-32-133 0-182 31-49 67-91 106-125 13-11 15-31 4-44-6-7-15-11-24-11z m267-105c-55 0-110 11-162 34-15 6-23 25-16 40 6 16 25 24 41 17 44-19 90-28 137-28 134 0 263 81 353 222 31 49 31 134 0 182-13 21-27 40-42 59-11 13-9 33 4 44 14 11 33 9 45-5 16-20 32-41 46-64 44-69 44-181 0-250-102-159-250-251-406-251z m29 198c-15 0-28 11-31 26-3 17 8 33 25 36 46 8 84 46 92 92 4 17 20 28 37 25 17-3 28-19 25-36-13-72-71-130-142-143-2 1-4 0-6 0z m-446-270c-8 0-15 3-22 9-12 12-12 32 0 44l312 312c12 12 32 12 44 0 12-12 12-32 0-44l-312-312c-6-6-14-9-22-9z m522 522c-7 0-15 3-22 9-12 12-12 32 0 45l312 311c12 12 32 12 44 0 12-12 12-32 0-44l-311-312c-7-6-15-9-23-9z" horiz-adv-x="1000" />

<glyph glyph-name="flash-1" unicode="&#xe950;" d="M416-98c-8 0-15 2-20 4-16 6-45 26-45 91v269h-97c-56 0-76 26-83 42-7 15-13 47 23 90l316 358c42 48 77 45 93 39 17-7 45-27 45-92v-268h98c56 0 76-27 83-42 7-16 13-48-24-90l-315-358c-30-34-55-43-74-43z m164 834c-1-2-10-6-23-22l-316-358c-11-13-13-22-13-23 1-1 8-5 26-5h129c17 0 31-14 31-31v-300c0-21 4-30 5-33 1 2 10 6 24 22l315 358c12 14 14 22 14 24-1 0-9 4-26 4h-129c-17 0-31 14-31 31v300c0 21-4 30-6 33z" horiz-adv-x="1000" />

<glyph glyph-name="folder-2" unicode="&#xe955;" d="M708-98h-416c-184 0-240 56-240 240v416c0 184 56 240 240 240h62c73 0 96-24 125-63l63-83c13-18 16-21 41-21h125c184 0 240-56 240-239v-250c0-184-56-240-240-240z m-416 833c-149 0-177-28-177-177v-416c0-149 28-177 177-177h416c150 0 177 28 177 177v250c0 148-27 177-177 177h-125c-53 0-70 18-91 46l-63 83c-21 29-28 37-75 37h-62z m541-182c-17 0-31 14-31 31v58c0 66-28 93-94 93h-375c-17 0-31 15-31 32 0 17 14 31 31 31h375c101 0 157-55 157-156v-58c0-17-15-31-32-31z" horiz-adv-x="1000" />

<glyph glyph-name="glass" unicode="&#xe97c;" d="M660-98h-320c-112 0-162 42-185 76-33 51-32 121 4 202l159 362c-22 6-42 18-58 34-24 24-38 57-38 92 0 72 58 130 130 130h296c35 0 67-14 92-38 33-33 45-79 35-124-11-44-48-80-93-93l159-364c35-80 37-150 3-201-22-34-73-76-184-76z m-308 833c-37 0-68-30-68-67 0-18 8-35 20-48 12-12 30-20 48-20h12c11 0 21-5 26-14 6-8 7-20 3-29l-177-402c-26-60-30-111-9-142 26-40 86-48 133-48h320c45 0 105 8 132 48 21 32 18 82-8 141l-176 403c-4 9-3 21 3 29 6 9 15 14 26 14h7c33 0 63 22 70 51 6 24-1 47-18 64-13 13-30 20-48 20h-296z m225-512c-28 0-57 4-87 14-118 40-240 36-242 36-16-3-31 12-32 30-1 17 13 31 30 32 5 0 135 5 264-38 108-37 214 32 215 33 15 10 34 5 44-9 9-14 6-33-9-43-4-3-83-55-183-55z" horiz-adv-x="1000" />

<glyph glyph-name="home-2" unicode="&#xe9aa;" d="M741-98h-482c-114 0-207 93-207 207v309c0 57 35 128 80 163l225 175c67 52 175 55 245 6l258-181c49-34 88-108 88-169v-303c0-114-93-207-207-207z m-346 805l-225-175c-29-24-55-77-55-114v-309c0-79 64-144 144-144h482c80 0 144 64 144 144v303c0 40-28 96-61 118l-258 180c-47 34-126 32-171-3z m105-638c-17 0-31 14-31 31v125c0 17 14 31 31 31 17 0 31-14 31-31v-125c0-17-14-31-31-31z" horiz-adv-x="1000" />

<glyph glyph-name="import-1" unicode="&#xe9b5;" d="M636-77h-272c-204 0-292 87-292 292v5c0 185 73 275 236 290 17 1 33-11 35-28 1-17-11-33-29-34-131-13-179-74-179-228v-5c0-170 60-230 229-230h272c169 0 229 60 229 230v5c0 155-49 216-182 228-18 1-30 16-29 33 2 17 16 30 34 29 166-15 240-104 240-290v-6c0-204-88-291-292-291z m-136 276c-17 0-31 14-31 31v537c0 17 14 31 31 31 17 0 31-14 31-31v-537c0-17-14-31-31-31z m0-47c-8 0-16 3-22 9l-140 140c-12 12-12 32 0 44 12 12 32 12 45 0l117-117 118 117c12 12 32 12 44 0 12-12 12-32 0-44l-140-140c-6-6-14-9-22-9z" horiz-adv-x="1000" />

<glyph glyph-name="info-circle" unicode="&#xe9b7;" d="M500-98c-247 0-448 201-448 448 0 247 201 448 448 448 247 0 448-201 448-448 0-247-201-448-448-448z m0 833c-212 0-385-172-385-385 0-212 173-385 385-385 213 0 385 173 385 385 0 213-172 385-385 385z m0-458c-17 0-31 14-31 31v209c0 17 14 31 31 31 17 0 31-14 31-31v-209c0-17-14-31-31-31z m0-135c-5 0-11 1-16 3-5 2-9 5-14 9-3 4-6 8-8 14-2 5-4 10-4 15 0 6 2 11 4 16 2 5 5 10 8 14 5 4 9 7 14 9 10 4 22 4 32 0 5-2 9-5 14-9 3-4 6-9 8-14 2-5 4-10 4-16 0-5-2-10-4-15-2-6-5-10-8-14-5-4-9-7-14-9-5-2-11-3-16-3z" horiz-adv-x="1000" />

<glyph glyph-name="key" unicode="&#xe9bc;" d="M258-98c-5 0-9 0-13 1l-90 12c-44 6-83 45-90 89l-12 91c-4 30 8 68 29 89l183 183c-30 118 5 243 92 329 135 135 354 135 490 0 65-65 101-152 101-245 0-92-36-179-101-245-88-86-212-121-330-91l-183-183c-18-18-49-30-76-30z m343 833c-73 0-145-27-201-83-75-74-102-184-70-285 3-12 0-23-8-32l-196-195c-7-7-13-26-12-35l13-92c2-16 19-33 35-36l91-12c10-2 28 4 35 11l197 197c8 8 20 10 31 7 101-32 210-5 285 70 54 54 83 125 83 201 0 77-29 148-83 201-54 55-127 83-200 83z m-218-741c-8 0-16 3-22 9l-96 96c-12 12-12 32 0 44 12 12 32 12 44 0l96-95c12-13 12-33 0-45-6-6-14-9-22-9z m221 366c-51 0-94 43-94 94 0 52 43 94 94 94 52 0 94-42 94-94 0-51-42-94-94-94z m0 125c-17 0-31-14-31-31 0-17 14-31 31-31 17 0 31 14 31 31 0 17-14 31-31 31z" horiz-adv-x="1000" />

<glyph glyph-name="data" unicode="&#xe9c7;" d="M491 355c-22 0-45 4-63 12l-246 109c-62 28-72 66-72 86 0 21 10 58 72 86l246 109c36 16 91 16 127 0l246-109c62-28 72-65 72-86 0-20-9-58-72-86l-246-109c-18-8-41-12-64-12z m0 352c-14 0-28-2-38-7l-245-109c-26-12-35-23-35-29 0-5 9-17 34-29l246-109c20-9 56-9 76 0l246 109c26 12 35 24 35 29 0 6-9 18-35 29l-245 109c-10 4-25 7-39 7z m9-569c-16 0-32 3-47 10l-283 126c-42 19-76 71-76 118 0 17 14 31 31 31 17 0 31-14 31-31 0-23 19-52 40-62l283-125c13-6 29-6 42 0l283 125c21 10 40 39 40 62 0 17 14 31 31 31 17 0 31-14 31-31 0-47-33-99-76-119l-283-125c-15-7-31-10-47-10z m0-208c-16 0-32 3-47 10l-283 125c-46 21-76 68-76 119 0 17 14 31 31 31 17 0 31-15 31-32 0-26 16-50 40-61l283-126c13-6 29-6 42 0l283 126c24 11 40 35 40 61 0 17 14 32 31 32 17 0 31-15 31-32 0-51-30-97-76-118l-283-126c-15-6-31-9-47-9z" horiz-adv-x="1000" />

<glyph glyph-name="link-2" unicode="&#xe9d1;" d="M375-46c-70 0-139 26-192 79-105 106-105 278 0 383 12 12 32 12 44 0 12-12 12-32 0-44-81-81-81-213 0-294 81-82 213-82 295 0 39 39 61 91 61 147 0 55-22 108-61 148-12 12-12 32 0 44 12 12 32 12 44 0 51-52 79-119 79-192 0-72-28-140-79-192-53-53-122-79-191-79z m420 306c-8 0-16 3-22 9-13 12-13 32 0 44 85 86 85 225 0 310-86 85-225 85-310 0-41-42-64-97-64-155 0-58 23-113 64-155 12-12 12-32 0-44-12-12-32-12-44 0-53 53-82 124-82 199 0 75 29 146 82 199 110 109 288 109 398 0 110-110 110-289 0-398-6-6-14-9-22-9z" horiz-adv-x="1000" />

<glyph glyph-name="location" unicode="&#xe9d5;" d="M500 260c-89 0-161 72-161 161 0 89 72 161 161 161 89 0 161-72 161-162 0-89-72-160-161-160z m0 259c-54 0-99-44-99-99 0-54 45-98 99-98 55 0 99 44 99 98 0 55-45 99-99 99z m0-617c-62 0-124 23-172 69-123 119-259 307-208 532 47 204 225 295 380 295 0 0 0 0 0 0 156 0 334-91 380-295 51-225-85-413-208-532-48-46-110-69-172-69z m0 833c-121 0-277-64-318-246-45-196 78-365 190-472 72-70 185-70 257 0 111 107 234 276 190 472-41 182-198 246-319 246z" horiz-adv-x="1000" />

<glyph glyph-name="location-slash" unicode="&#xe9d9;" d="M434 277c-5 0-11 1-16 4-49 29-79 82-79 139 0 89 72 161 161 161 57 0 111-30 139-80 9-15 4-34-11-43-15-8-34-3-43 12-17 30-50 49-85 49-54 0-99-44-99-99 0-35 19-67 49-85 15-8 20-27 11-42-5-10-16-16-27-16z m-184-200c-10 0-20 4-26 13-100 137-135 276-104 413 33 143 138 249 281 284 150 36 308-13 401-124 11-13 9-33-4-44-13-11-33-9-44 4-78 93-211 134-338 103-122-29-207-115-235-236-27-119 4-241 94-363 10-14 7-33-7-44-5-4-12-6-18-6z m250-175c-62 0-124 23-172 69-13 12-13 32-1 44 12 13 32 13 44 1 72-69 185-69 257 0 112 107 235 277 191 473-4 16 6 34 24 37 16 4 33-6 37-23 51-225-85-413-208-532-48-46-110-69-172-69z m-417 0c-8 0-15 3-22 9-12 12-12 32 0 44l834 834c12 12 32 12 44 0 12-12 12-32 0-44l-834-834c-6-6-14-9-22-9z" horiz-adv-x="1000" />

<glyph glyph-name="login-1" unicode="&#xe9e0;" d="M487 210c-8 0-16 3-22 9-12 12-12 32 0 44l84 85-84 84c-12 12-12 32 0 44 12 12 32 12 44 0l106-106c13-12 13-32 0-45l-106-106c-6-6-14-9-22-9z m103 106h-423c-17 0-32 14-32 32 0 17 15 31 32 31h423c18 0 32-14 32-31 0-18-14-32-32-32z m-90-331c-17 0-31 15-31 32 0 17 14 31 31 31 178 0 302 124 302 302 0 178-124 302-302 302-17 0-31 14-31 31 0 17 14 32 31 32 215 0 365-150 365-365 0-215-150-365-365-365z" horiz-adv-x="1000" />

<glyph glyph-name="logout-1" unicode="&#xe9e2;" d="M727 210c-8 0-16 3-22 9-12 12-12 32 0 44l84 85-84 84c-12 12-12 32 0 44 12 12 32 12 44 0l107-106c12-12 12-32 0-45l-107-106c-6-6-14-9-22-9z m103 106h-423c-17 0-32 14-32 32 0 17 15 31 32 31h423c18 0 32-14 32-31 0-18-14-32-32-32z m-340-331c-215 0-365 150-365 365 0 215 150 365 365 365 17 0 31-15 31-32 0-17-14-31-31-31-178 0-302-124-302-302 0-178 124-302 302-302 17 0 31-14 31-31 0-17-14-32-31-32z" horiz-adv-x="1000" />

<glyph glyph-name="magicpen" unicode="&#xe9e4;" d="M208-61c-30 0-61 11-84 35-23 22-35 52-35 84 0 32 12 62 35 85l542 542c46 46 122 46 169 0 22-23 35-53 35-85 0-32-13-62-35-85l-542-541c-23-24-54-35-85-35z m542 718c-14 0-29-5-40-17l-542-541c-11-11-17-25-17-41 0-15 6-29 17-40 22-22 59-22 81 0l542 542c10 10 16 25 16 40 0 15-6 30-16 40-12 12-26 17-41 17z m0-213c-7 0-15 3-22 9l-125 125c-12 12-12 32 0 45 12 12 32 12 45 0l125-125c12-13 12-33 0-45-7-6-15-9-23-9z m-333 177c-2 0-4 0-6 1l-57 16-56-16c-8-2-16 0-21 5-5 6-7 13-5 21l16 56-16 57c-2 7 0 15 5 20 6 6 13 8 21 6l56-17 57 17c7 2 15 0 20-6 6-5 8-13 6-20l-17-57 17-56c2-8 0-16-6-21-3-4-9-6-14-6z m-63 60c2 0 4-1 6-1l26-7-8 25c-1 4-1 8 0 12l8 26-26-8c-4-1-8-1-12 0l-25 8 7-26c1-4 1-8 0-12l-7-25 25 7c2 0 4 1 6 1z m-104-310c-2 0-4 0-6 1l-56 16-57-16c-8-2-15 0-21 5-5 6-7 13-5 21l17 56-17 57c-2 7 0 15 5 20 6 5 14 8 21 6l57-17 56 17c7 2 15 0 21-6 5-5 7-13 5-20l-17-57 17-56c2-8 0-16-5-21-4-4-10-6-15-6z m-62 60c2 0 3-1 5-1l26-7-7 25c-2 4-2 8 0 12l7 26-26-8c-3-1-8-1-11 0l-26 8 7-26c2-4 2-8 0-12l-7-25 26 7c2 0 3 1 6 1z m687-268c-2 0-4 0-6 0l-56 17-57-17c-8-2-15 0-21 6-5 5-7 13-5 20l17 57-17 57c-2 7 0 15 5 20 6 5 14 7 21 5l57-16 56 16c7 2 15 0 21-5 5-5 7-13 5-20l-17-57 17-57c2-7 0-15-5-20-4-4-10-6-15-6z m-62 60c2 0 3-1 5-1l26-8-7 26c-2 4-2 8 0 12l7 26-26-8c-3-1-8-1-11 0l-26 8 7-26c2-4 2-8 0-12l-7-26 26 8c2 0 3 1 6 1z" horiz-adv-x="1000" />

<glyph glyph-name="maximize-2" unicode="&#xe9f0;" d="M625-98h-42c-17 0-31 14-31 31 0 17 14 32 31 32h42c192 0 260 68 260 260v250c0 192-68 260-260 260h-250c-192 0-260-68-260-260v-41c0-17-15-31-32-31-17 0-31 14-31 31v41c0 226 97 323 323 323h250c226 0 323-97 323-323v-250c0-226-97-323-323-323z m-83 458c-8 0-16 3-22 10-12 12-12 32 0 44l155 156h-92c-17 0-31 14-31 31 0 17 14 32 31 32h167c13 0 25-8 29-20 5-11 2-25-6-34l-209-209c-6-7-14-10-22-10z m208 43c-17 0-31 14-31 31v167c0 17 14 32 31 32 18 0 32-15 32-32v-167c0-17-14-31-32-31z m-423-501h-112c-111 0-163 52-163 163v112c0 111 52 163 163 163h112c111 0 163-52 163-163v-112c0-111-52-163-163-163z m-112 375c-77 0-100-23-100-100v-112c0-77 23-100 100-100h112c77 0 100 23 100 100v112c0 77-23 100-100 100h-112z" horiz-adv-x="1000" />

<glyph glyph-name="maximize-4" unicode="&#xe9f2;" d="M875 444c-17 0-31 14-31 31v219h-219c-17 0-31 14-31 31 0 17 14 31 31 31h250c17 0 31-14 31-31v-250c0-17-14-31-31-31z m-500-500h-250c-17 0-31 14-31 31v250c0 17 14 31 31 31 17 0 31-14 31-31v-219h219c17 0 31-14 31-31 0-17-14-31-31-31z m188 437c-8 0-16 3-23 9-12 13-12 33 0 45l313 312c12 12 32 12 44 0 12-12 12-32 0-44l-312-313c-7-6-15-9-22-9z m-438-437c-8 0-16 3-22 9-12 12-12 32 0 44l312 313c13 12 33 12 45 0 12-12 12-32 0-45l-313-312c-6-6-14-9-22-9z" horiz-adv-x="1000" />

<glyph glyph-name="maximize-21" unicode="&#xe9f3;" d="M83 444c-17 0-31 14-31 31v104c0 121 98 219 219 219h104c17 0 31-14 31-31 0-17-14-32-31-32h-104c-86 0-156-70-156-156v-104c0-17-15-31-32-31z m834 0c-17 0-32 14-32 31v104c0 86-70 156-156 156h-104c-17 0-31 15-31 32 0 17 14 31 31 31h104c121 0 219-98 219-219v-104c0-17-14-31-31-31z m-188-542h-62c-17 0-32 14-32 31 0 17 15 32 32 32h62c86 0 156 70 156 156v62c0 17 15 32 32 32 17 0 31-15 31-32v-62c0-121-98-219-219-219z m-354 0h-104c-121 0-219 98-219 219v104c0 17 14 31 31 31 17 0 32-14 32-31v-104c0-86 70-156 156-156h104c17 0 31-15 31-32 0-17-14-31-31-31z" horiz-adv-x="1000" />

<glyph glyph-name="menu-1" unicode="&#xe9f8;" d="M875 527h-750c-17 0-31 14-31 31 0 17 14 32 31 32h750c17 0 31-15 31-32 0-17-14-31-31-31z m0-208h-750c-17 0-31 14-31 31 0 17 14 31 31 31h750c17 0 31-14 31-31 0-17-14-31-31-31z m0-209h-750c-17 0-31 15-31 32 0 17 14 31 31 31h750c17 0 31-14 31-31 0-17-14-32-31-32z" horiz-adv-x="1000" />

<glyph glyph-name="message" unicode="&#xe9fa;" d="M500-100c-29 0-56 14-75 40l-62 83c-2 2-7 4-9 4h-21c-173 0-281 47-281 281v209c0 184 97 281 281 281h334c184 0 281-97 281-281v-209c0-184-97-281-281-281h-21c-3 0-6-2-8-4l-63-83c-19-26-46-40-75-40z m-167 835c-149 0-218-69-218-218v-209c0-188 64-218 218-218h21c21 0 46-12 59-30l62-83c15-19 35-19 50 0l63 83c13 19 35 30 58 30h21c149 0 218 69 218 218v209c0 149-69 218-218 218h-334z m167-385c-23 0-42 19-42 42 0 23 19 41 42 41 23 0 42-18 42-41 0-23-19-42-42-42z m167 0c-24 0-42 19-42 42 0 23 19 41 42 41 23 0 41-18 41-41 0-23-18-42-41-42z m-334 0c-23 0-41 19-41 42 0 23 18 41 41 41 23 0 42-18 42-41 0-23-18-42-42-42z" horiz-adv-x="1000" />

<glyph glyph-name="messages" unicode="&#xea06;" d="M416-99c-25 0-48 12-65 34l-50 67c0 0-2 1-3 1h-15c-143 0-231 39-231 231v166c0 176 107 222 197 230 10 1 22 1 34 1h267c150 0 230-80 230-231v-166c0-12 0-24-2-35-7-89-53-196-228-196h-17l-52-68c-16-22-40-34-65-34z m-133 668c-10 0-19-1-28-1-96-9-140-62-140-168v-166c0-143 44-169 168-169h17c18 0 40-10 51-25l50-67c9-13 21-13 30 0l50 67c12 16 32 25 52 25h17c105 0 158 45 166 140 2 10 2 19 2 29v166c0 117-52 169-168 169h-267z m133-310c-23 0-41 19-41 41 0 23 18 42 41 42 23 0 42-19 42-42 0-22-18-41-42-41z m134 0c-24 0-42 19-42 41 0 23 19 42 42 42 23 0 41-19 41-42 0-22-18-41-41-41z m-267 0c-23 0-41 19-41 41 0 23 18 42 41 42 23 0 42-19 42-42 0-22-19-41-42-41z m465-88c-9 0-17 4-23 10-7 7-10 16-8 25 1 9 1 18 1 28v166c0 117-52 169-168 169h-267c-9 0-18-1-27-1-9-2-19 2-26 8-6 7-10 16-9 25 7 90 54 197 229 197h267c151 0 231-80 231-231v-167c0-175-108-221-198-229-1 0-2 0-2 0z m-460 460h262c150 0 230-80 230-231v-161c71 18 105 70 105 161v167c0 116-52 168-169 168h-266c-92 0-144-33-162-104z" horiz-adv-x="1000" />

<glyph glyph-name="microphone-2" unicode="&#xea11;" d="M500 173c-109 0-198 89-198 198v229c0 109 89 198 198 198 109 0 198-89 198-198v-229c0-109-89-198-198-198z m0 562c-75 0-135-60-135-135v-229c0-75 60-136 135-136 75 0 135 61 135 136v229c0 75-60 135-135 135z m0-708c-193 0-350 157-350 350v71c0 17 14 31 31 31 17 0 32-14 32-31v-71c0-158 129-287 287-287 158 0 288 129 288 287v71c0 17 14 31 31 31 17 0 31-14 31-31v-71c0-193-157-350-350-350z m58 524c-3 0-7 0-11 2-30 11-64 11-94 0-16-6-34 2-40 18-6 17 2 34 19 40 44 16 93 16 137 0 16-6 24-23 19-40-5-12-18-20-30-20z m-25-88c-3 0-5 0-8 1-17 4-34 4-50 0-17-5-34 5-39 22-4 16 6 33 22 38 27 7 57 7 84 0 16-5 26-22 22-39-4-13-17-22-31-22z m-33-561c-17 0-31 14-31 31v125c0 17 14 32 31 32 17 0 31-15 31-32v-125c0-17-14-31-31-31z" horiz-adv-x="1000" />

<glyph glyph-name="minus-cirlce" unicode="&#xea18;" d="M497-98c-247 0-448 201-448 448 0 247 201 448 448 448 246 0 448-201 448-448 0-247-201-448-448-448z m0 833c-213 0-386-172-386-385 0-212 173-385 386-385 212 0 385 173 385 385 0 213-173 385-385 385z m166-416h-333c-17 0-31 14-31 31 0 17 14 31 31 31h333c17 0 32-14 32-31 0-17-14-31-32-31z" horiz-adv-x="1000" />

<glyph glyph-name="moon" unicode="&#xea2e;" d="M519-98c-7 0-14 0-21 0-233 11-428 199-445 428-14 197 100 380 283 458 52 21 80 5 92-8 11-11 27-38 6-88-19-44-29-91-29-139 1-185 155-342 342-349 27-1 53 1 79 5 55 10 78-12 87-26 9-14 19-45-15-90-88-121-228-191-379-191z m-404 433c15-199 184-361 385-370 138-7 268 56 348 165 6 9 9 15 10 18-4 1-10 1-21-1-30-5-62-7-93-6-220 9-400 193-401 411 0 57 11 113 34 165 4 9 5 15 5 18-4 0-10 0-21-5-159-67-257-226-246-395z" horiz-adv-x="1000" />

<glyph glyph-name="more" unicode="&#xea2f;" d="M208 235c-63 0-114 52-114 115 0 63 51 115 114 115 64 0 115-52 115-115 0-63-51-115-115-115z m0 167c-28 0-52-23-52-52 0-29 24-52 52-52 29 0 52 23 52 52 0 29-23 52-52 52z m584-167c-64 0-115 52-115 115 0 63 51 115 115 115 63 0 114-52 114-115 0-63-51-115-114-115z m0 167c-29 0-52-23-52-52 0-29 23-52 52-52 28 0 52 23 52 52 0 29-24 52-52 52z m-292-167c-63 0-115 52-115 115 0 63 52 115 115 115 63 0 115-52 115-115 0-63-52-115-115-115z m0 167c-29 0-52-23-52-52 0-29 23-52 52-52 29 0 52 23 52 52 0 29-23 52-52 52z" horiz-adv-x="1000" />

<glyph glyph-name="note" unicode="&#xea44;" d="M659 9c-11 0-22 1-34 2-22 2-47 6-72 12l-70 17c-192 45-255 147-210 338l41 175c9 40 20 72 33 98 72 148 209 135 306 112l70-16c97-23 159-59 194-115 34-55 39-127 16-224l-40-174c-36-153-111-225-234-225z m-112 706c-70 0-114-29-144-91-10-22-20-50-28-85l-41-175c-37-157 6-226 163-264l70-16c23-6 44-9 63-11 113-11 170 39 201 175l41 174c19 81 16 137-9 177-25 41-74 68-155 87l-69 16c-35 8-66 13-92 13z m-200-792c-107 0-175 64-219 200l-53 164c-60 183-7 287 176 346l66 21c21 7 38 11 52 14 12 2 24-2 31-12 7-9 8-22 3-33-10-22-20-50-28-85l-41-174c-37-158 6-226 164-264l70-17c22-5 43-8 62-10 14-1 25-10 28-23 4-13-1-27-12-34-28-19-62-35-106-49l-66-22c-48-15-89-22-127-22z m-23 668l-54-18c-148-48-184-118-136-267l54-164c48-149 118-185 267-137l65 22c3 1 5 1 8 2l-45 11c-192 45-255 147-210 338l41 175c3 13 6 26 10 38z" horiz-adv-x="1000" />

<glyph glyph-name="paperclip" unicode="&#xea56;" d="M457-98c-155 0-281 126-281 281v250c0 178 145 323 323 323 178 0 323-145 323-323v-229c0-97-80-177-177-177-98 0-177 80-177 177v146c0 17 14 31 31 31 17 0 31-14 31-31v-146c0-63 51-114 115-114 63 0 114 51 114 114v229c0 144-116 261-260 261-144 0-261-117-261-261v-250c0-120 98-218 219-218 17 0 31-15 31-32 0-17-13-31-31-31z" horiz-adv-x="1000" />

<glyph glyph-name="play" unicode="&#xea6a;" d="M328-37c-33 0-64 8-92 24-65 38-101 114-101 214v297c0 101 36 177 101 215 65 37 149 30 237-20l257-149c87-50 135-119 135-194 0-75-48-145-135-195l-257-148c-51-29-100-44-145-44z m0 711c-23 0-43-5-60-15-45-26-70-83-70-161v-296c0-78 25-134 70-161 45-26 106-18 173 20l257 149c67 38 105 88 105 140 0 52-38 102-105 140l-257 149c-41 23-79 35-113 35z" horiz-adv-x="1000" />

<glyph glyph-name="presention-chart" unicode="&#xea6f;" d="M754 110h-508c-97 0-152 56-152 153v504c0 17 14 31 31 31h750c17 0 31-14 31-31v-504c0-97-55-153-152-153z m-598 625v-472c0-63 28-90 90-90h508c62 0 89 27 89 90v472h-687z m761 0h-834c-17 0-31 15-31 32 0 17 14 31 31 31h834c17 0 31-14 31-31 0-17-14-32-31-32z m-584-833c-11 0-22 6-28 17-7 16-1 34 15 42l149 75v106c0 17 14 31 31 31 17 0 31-14 31-31v-125c0-12-6-23-17-28l-167-84c-4-2-9-3-14-3z m334 0c-5 0-10 1-14 3l-167 84c-15 8-21 26-14 42 8 15 27 22 42 14l167-83c15-8 22-27 14-42-6-12-17-18-28-18z m-354 458c-9 0-18 4-25 12-11 13-9 33 5 44l131 109c12 10 27 15 42 12 15-2 28-12 36-25l43-73 123 102c13 11 32 9 44-4 11-14 9-33-4-44l-132-110c-12-10-27-14-42-12-15 3-28 12-36 25l-43 73-122-101c-6-5-13-8-20-8z" horiz-adv-x="1000" />

<glyph glyph-name="redo" unicode="&#xea9c;" d="M703 56h-333c-132 0-240 107-240 239 0 133 108 240 240 240h458c17 0 31-14 31-31 0-17-14-31-31-31h-458c-98 0-177-80-177-178 0-97 79-177 177-177h333c17 0 31-14 31-31 0-17-14-31-31-31z m29 312c-8 0-16 3-22 10-12 12-12 32 0 44l85 84-85 85c-12 12-12 32 0 44 12 12 32 12 44 0l107-107c12-12 12-32 0-44l-107-106c-6-7-14-10-22-10z" horiz-adv-x="1000" />

<glyph glyph-name="rotate-left" unicode="&#xeaa8;" d="M500-98c-217 0-392 176-392 393 0 78 22 153 66 218 9 14 29 18 43 9 14-10 18-29 9-44-36-54-56-118-56-183 0-182 148-330 330-330 183 0 330 148 330 330 0 182-148 330-330 330-38 0-76-5-111-16-17-5-34 4-39 21-5 16 4 34 20 39 42 12 85 19 130 19 217 0 393-176 393-393 0-216-176-393-393-393z m-172 695c-7 0-15 3-20 8-14 11-15 31-4 44l121 138c11 13 31 15 44 3 13-11 14-31 3-44l-121-138c-6-7-15-11-23-11z m140-102c-6 0-13 2-18 5l-141 103c-14 10-16 30-6 44 10 14 29 17 43 7l141-103c13-10 17-29 6-43-5-9-15-13-25-13z" horiz-adv-x="1000" />

<glyph glyph-name="rotate-right" unicode="&#xeaaa;" d="M500-98c-217 0-392 176-392 393 0 216 175 393 392 393 45 0 88-7 130-20 16-5 25-22 20-39-5-16-22-26-39-21-35 11-73 17-111 17-182 0-330-148-330-330 0-182 148-330 330-330 182 0 330 148 330 330 0 66-19 129-55 183-10 15-6 34 8 44 15 9 34 6 44-9 43-65 66-140 66-218 0-217-176-393-393-393z m172 695c-9 0-17 4-24 11l-120 138c-11 13-10 33 3 44 13 12 33 10 44-2l120-139c12-13 10-33-2-44-6-5-13-8-21-8z m-140-102c-10 0-19 4-26 13-10 13-7 33 7 43l140 103c14 10 34 7 44-7 11-14 7-33-7-44l-140-103c-5-4-12-5-18-5z" horiz-adv-x="1000" />

<glyph glyph-name="search-zoom-in-1" unicode="&#xeac8;" d="M458-15c-224 0-406 183-406 407 0 224 182 406 406 406 225 0 407-182 407-406 0-224-182-407-407-407z m0 750c-189 0-343-154-343-343 0-190 154-344 343-344 190 0 344 154 344 344 0 189-154 343-344 343z m105-375h-209c-17 0-31 15-31 32 0 17 14 31 31 31h209c17 0 31-14 31-31 0-17-14-32-31-32z m-105-104c-17 0-31 14-31 32v208c0 17 14 31 31 31 17 0 32-14 32-31v-208c0-18-15-32-32-32z m382-356c-3 0-7 1-10 1-19 3-55 16-75 76-10 31-6 62 11 86 17 24 46 37 79 37 42 0 75-16 90-45 15-29 11-65-12-101-30-44-62-54-83-54z m-25 96c7-21 17-32 24-33 6-1 19 7 32 26 12 18 13 31 10 36-3 6-15 13-36 13-13 0-23-5-28-12-5-7-6-18-2-30z" horiz-adv-x="1000" />

<glyph glyph-name="search-zoom-out" unicode="&#xeac9;" d="M458-15c-224 0-406 183-406 407 0 224 182 406 406 406 225 0 407-182 407-406 0-224-182-407-407-407z m0 750c-189 0-343-154-343-343 0-190 154-344 343-344 190 0 344 154 344 344 0 189-154 343-344 343z m105-375h-209c-17 0-31 15-31 32 0 17 14 31 31 31h209c17 0 31-14 31-31 0-17-14-32-31-32z m277-460c-3 0-7 1-10 1-19 3-55 16-75 76-10 31-6 62 11 86 17 24 46 37 79 37 42 0 75-16 90-45 15-29 11-65-12-101-30-44-62-54-83-54z m-25 96c7-21 17-32 24-33 6-1 19 7 32 26 12 18 13 31 10 36-3 6-15 13-36 13-13 0-23-5-28-12-5-7-6-18-2-30z" horiz-adv-x="1000" />

<glyph glyph-name="send-1" unicode="&#xead1;" d="M225-56c-46 0-76 16-95 34-36 37-62 115 20 280l37 72c4 10 4 30 0 40l-37 72c-82 165-56 243-20 280 37 36 115 63 280-20l357-179c88-44 137-105 137-173 0-67-49-129-137-173l-357-179c-80-40-140-54-185-54z m0 750c-22 0-40-6-50-16-31-30-19-108 31-208l37-72c13-28 13-68 0-95l-37-73c-50-100-62-177-31-207 30-31 108-18 208 32l356 178c66 32 103 75 103 117 0 43-38 85-103 118l-357 178c-63 32-118 48-157 48z m227-375h-225c-17 0-32 14-32 31 0 17 15 31 32 31h225c17 0 31-14 31-31 0-17-14-31-31-31z" horiz-adv-x="1000" />

<glyph glyph-name="setting-2" unicode="&#xead6;" d="M500 194c-86 0-156 70-156 156 0 86 70 156 156 156 86 0 156-70 156-156 0-86-70-156-156-156z m0 250c-52 0-94-42-94-94 0-52 42-94 94-94 52 0 94 42 94 94 0 52-42 94-94 94z m134-519c-9 0-18 2-26 4-26 7-48 23-62 46l-5 8c-24 43-58 43-83 0l-4-8c-14-23-36-40-61-46-27-7-54-4-77 10l-71 41c-26 15-44 39-52 68-8 28-4 58 11 83 12 22 15 41 8 53-7 12-25 19-49 19-61 0-111 50-111 110v74c0 61 50 110 111 110 24 0 42 7 49 19 7 12 4 32-8 53-15 25-19 55-11 84 7 28 26 52 52 67l72 41c47 28 109 12 137-36l5-9c25-42 59-42 83 0l5 8c28 49 90 65 138 36l71-41c26-14 44-38 52-67 7-29 4-58-11-84-12-21-15-40-8-52 7-12 25-19 49-19 61 0 111-50 111-111v-73c0-61-50-110-111-110-24 0-42-8-49-20-7-12-4-31 8-52 15-26 19-56 11-84-8-29-26-52-52-67l-72-41c-16-9-33-14-50-14z m-134 155c37 0 72-24 95-65l5-8c5-9 13-15 23-17 10-3 20-2 29 3l72 42c11 6 19 17 22 29 4 13 2 26-4 36-24 41-27 83-9 115 19 33 57 51 104 51 27 0 48 21 48 48v73c0 26-21 48-48 48-47 0-85 18-104 50-18 33-15 75 9 115 6 11 8 24 4 37-3 12-11 22-22 29l-72 41c-18 11-42 5-52-14l-5-8c-24-41-58-64-95-64-37 0-72 23-96 64l-4 9c-11 17-34 24-52 13l-72-42c-11-6-19-16-23-29-3-12-1-25 5-36 24-41 27-83 8-115-18-32-56-50-103-50-27 0-48-22-48-48v-74c0-26 21-48 48-48 47 0 85-18 103-50 19-32 16-74-8-115-6-11-8-24-5-36 4-13 12-23 22-29l73-42c8-5 19-6 28-4 10 3 19 9 24 18l5 8c23 41 58 65 95 65z" horiz-adv-x="1000" />

<glyph glyph-name="setting-4" unicode="&#xead8;" d="M917 548h-250c-17 0-32 14-32 31 0 17 15 31 32 31h250c17 0 31-14 31-31 0-17-14-31-31-31z m-667 0h-167c-17 0-31 14-31 31 0 17 14 31 31 31h167c17 0 31-14 31-31 0-17-14-31-31-31z m167-146c-98 0-177 80-177 177 0 98 79 177 177 177 97 0 177-79 177-177 0-97-80-177-177-177z m0 292c-64 0-115-51-115-115 0-63 51-114 115-114 63 0 114 51 114 114 0 64-51 115-114 115z m500-604h-167c-17 0-31 14-31 31 0 17 14 31 31 31h167c17 0 31-14 31-31 0-17-14-31-31-31z m-584 0h-250c-17 0-31 14-31 31 0 17 14 31 31 31h250c17 0 32-14 32-31 0-17-15-31-32-31z m250-146c-97 0-177 79-177 177 0 97 80 177 177 177 98 0 177-80 177-177 0-98-79-177-177-177z m0 291c-63 0-114-51-114-114 0-63 51-115 114-115 64 0 115 52 115 115 0 63-51 114-115 114z" horiz-adv-x="1000" />

<glyph glyph-name="setting-5" unicode="&#xead9;" d="M792-98c-17 0-32 14-32 31v459c0 17 15 31 32 31 17 0 31-14 31-31v-459c0-17-14-31-31-31z m0 625c-17 0-32 14-32 31v209c0 17 15 31 32 31 17 0 31-14 31-31v-209c0-17-14-31-31-31z m-292-625c-17 0-31 14-31 31v209c0 17 14 31 31 31 17 0 31-14 31-31v-209c0-17-14-31-31-31z m0 375c-17 0-31 14-31 31v459c0 17 14 31 31 31 17 0 31-14 31-31v-459c0-17-14-31-31-31z m-292-375c-17 0-31 14-31 31v459c0 17 14 31 31 31 17 0 32-14 32-31v-459c0-17-15-31-32-31z m0 625c-17 0-31 14-31 31v209c0 17 14 31 31 31 17 0 32-14 32-31v-209c0-17-15-31-32-31z m84-167h-167c-17 0-31 15-31 32 0 17 14 31 31 31h167c17 0 31-14 31-31 0-17-14-32-31-32z m583 0h-167c-17 0-31 15-31 32 0 17 14 31 31 31h167c17 0 31-14 31-31 0-17-14-32-31-32z m-292-83h-166c-17 0-32 14-32 31 0 17 15 32 32 32h166c17 0 32-15 32-32 0-17-15-31-32-31z" horiz-adv-x="1000" />

<glyph glyph-name="shuffle" unicode="&#xeae9;" d="M232 69c0 0-1 0-1 0l-106 1c-17 0-32 14-32 31 0 17 15 31 32 31l106 0h0c27 0 53 13 68 36l266 399c27 40 71 64 120 64 0 0 0 0 0 0l190-1c17 0 31-14 31-31 0-17-14-31-31-31l-190 1h0c-27 0-52-14-67-36l-267-400c-26-40-71-64-119-64z m560-83c-8 0-16 3-22 9-12 13-12 33 0 45l83 83c12 12 32 12 44 0 12-12 12-32 0-44l-83-84c-6-6-14-9-22-9z m-422 473c-9 0-19 5-25 13l-45 63c-15 21-41 33-66 33l-109 0c-19 0-31 14-31 31 0 17 14 31 31 31l109 1c0 0 0 0 1 0 46 0 89-23 116-60l45-62c10-14 7-34-7-44-6-4-12-6-19-6z m310-390c-44 0-87 21-114 56l-51 65c-10 14-7 33 6 44 14 10 33 8 44-6l50-65c16-20 40-30 65-32l195 1c17 0 31-14 31-31 0-17-14-31-31-31l-195-1c0 0 0 0 0 0z m195 499c-8 0-16 3-22 9l-83 83c-12 13-12 33 0 45 12 12 32 12 44 0l83-84c12-12 12-32 0-44-6-6-14-9-22-9z" horiz-adv-x="1000" />

<glyph glyph-name="sidebar-bottom" unicode="&#xeaea;" d="M624-98h-250c-226 0-323 97-323 323v250c0 226 97 323 323 323h250c226 0 323-97 323-323v-250c0-226-97-323-323-323z m-250 833c-192 0-261-68-261-260v-250c0-192 69-260 261-260h250c192 0 260 68 260 260v250c0 192-68 260-260 260h-250z m543-562h-834c-17 0-31 14-31 31 0 17 14 31 31 31h834c17 0 31-14 31-31 0-17-14-31-31-31z m-417 185c-8 0-16 3-22 9l-107 107c-12 12-12 32 0 44 12 12 32 12 45 0l84-85 85 85c12 12 32 12 44 0 12-12 12-32 0-44l-107-107c-6-6-14-9-22-9z" horiz-adv-x="1000" />

<glyph glyph-name="sidebar-left" unicode="&#xeaeb;" d="M624-98h-250c-226 0-323 97-323 323v250c0 226 97 323 323 323h250c226 0 323-97 323-323v-250c0-226-97-323-323-323z m-250 833c-192 0-261-68-261-260v-250c0-192 69-260 261-260h250c192 0 260 68 260 260v250c0 192-68 260-260 260h-250z m-42-833c-17 0-31 14-31 31v834c0 17 14 31 31 31 17 0 31-14 31-31v-834c0-17-13-31-31-31z m292 310c-8 0-16 3-22 9l-107 107c-12 12-12 32 0 44l107 107c12 12 32 12 44 0 12-12 12-32 0-44l-84-85 84-85c12-12 12-32 0-44-6-6-14-9-22-9z" horiz-adv-x="1000" />

<glyph glyph-name="sidebar-right" unicode="&#xeaec;" d="M624-98h-250c-226 0-323 97-323 323v250c0 226 97 323 323 323h250c226 0 323-97 323-323v-250c0-226-97-323-323-323z m-250 833c-192 0-261-68-261-260v-250c0-192 69-260 261-260h250c192 0 260 68 260 260v250c0 192-68 260-260 260h-250z m250-833c-17 0-31 14-31 31v834c0 17 14 31 31 31 17 0 31-14 31-31v-834c0-17-14-31-31-31z m-292 310c-8 0-16 3-22 9-12 12-12 32 0 44l85 85-85 85c-12 12-12 32 0 44 12 12 32 12 44 0l107-107c12-12 12-32 0-44l-107-107c-6-6-14-9-22-9z" horiz-adv-x="1000" />

<glyph glyph-name="sidebar-top" unicode="&#xeaed;" d="M624-98h-250c-226 0-323 97-323 323v250c0 226 97 323 323 323h250c226 0 323-97 323-323v-250c0-226-97-323-323-323z m-250 833c-192 0-261-68-261-260v-250c0-192 69-260 261-260h250c192 0 260 68 260 260v250c0 192-68 260-260 260h-250z m543-270h-834c-17 0-31 14-31 31 0 17 14 31 31 31h834c17 0 31-14 31-31 0-17-14-31-31-31z m-310-292c-8 0-16 3-22 9l-85 85-84-85c-13-12-33-12-45 0-12 12-12 32 0 44l107 107c12 12 32 12 44 0l107-107c12-12 12-32 0-44-6-6-14-9-22-9z" horiz-adv-x="1000" />

<glyph glyph-name="slash" unicode="&#xeaf3;" d="M500-98c-247 0-448 201-448 448 0 247 201 448 448 448 247 0 448-201 448-448 0-247-201-448-448-448z m0 833c-212 0-385-172-385-385 0-212 173-385 385-385 213 0 385 173 385 385 0 213-172 385-385 385z m-296-708c-8 0-16 3-22 9-12 12-12 32 0 44l583 584c13 12 33 12 45 0 12-12 12-32 0-44l-584-584c-6-6-14-9-22-9z" horiz-adv-x="1000" />

<glyph glyph-name="smallcaps" unicode="&#xeaf9;" d="M775 572c-17 0-31 14-31 31v63c0 25-20 46-46 46h-538c-25 0-46-21-46-46v-63c0-17-14-31-31-31-18 0-31 14-31 31v63c0 59 48 108 108 108h538c60 0 109-48 109-108v-63c0-17-14-31-32-31z m-346-507c-17 0-31 14-31 31v616c0 17 14 31 31 31 17 0 31-14 31-31v-616c0-18-14-31-31-31z m91 0h-232c-18 0-32 14-32 31 0 17 14 31 32 31h232c17 0 31-14 31-31 0-17-14-31-31-31z m397 235c-17 0-31 14-31 31v34c0 13-11 23-24 23h-292c-17 0-31 15-31 32 0 17 14 31 31 31h292c48 0 86-39 86-86v-34c0-17-13-31-31-31z m-247-374c-17 0-31 14-31 31v440c0 17 14 31 31 31 17 0 31-14 31-31v-440c0-17-14-31-31-31z m89 0h-178c-17 0-31 14-31 31 0 17 14 31 31 31h178c17 0 31-14 31-31 0-17-14-31-31-31z" horiz-adv-x="1000" />

<glyph glyph-name="sms" unicode="&#xeafd;" d="M708-35h-416c-152 0-240 87-240 239v292c0 152 88 239 240 239h416c152 0 240-87 240-239v-292c0-152-88-239-240-239z m-416 708c-119 0-177-58-177-177v-292c0-119 58-177 177-177h416c120 0 177 58 177 177v292c0 119-57 177-177 177h-416z m208-359c-35 0-70 11-98 33l-130 104c-13 11-16 30-5 44 11 13 31 15 44 5l130-105c32-25 86-25 117 0l131 105c13 10 33 8 44-5 10-14 8-34-6-44l-130-104c-27-22-62-33-97-33z" horiz-adv-x="1000" />

</font>
</defs>
</svg>
